<svg width="22" height="19" viewBox="0 0 22 19" fill="none" xmlns="http://www.w3.org/2000/svg">
<path d="M18.3596 14.5C21.1944 9.22743 21.4665 8.27322 18.3596 3L14.8596 3.5C12.1457 8.40199 12.4864 11.4356 15.3596 15.3214L18.3596 14.5Z" fill="#1A1C53"/>
<path d="M2.35961 8.5C1.84927 9.54342 1.91201 10.0813 2.35961 11L6.53618 12.3884L10.8596 13.8255L15.3596 15.3214C12.4864 11.4356 12.1457 8.40199 14.8596 3.5L2.35961 8.5Z" fill="#F74D61"/>
<path d="M2.35961 8.5L2.26676 8.26788L2.17735 8.30365L2.13503 8.39016L2.35961 8.5ZM2.35961 11L2.13486 11.1095L2.18093 11.2041L2.28075 11.2372L2.35961 11ZM18.3596 14.5L18.4256 14.7411L18.529 14.7128L18.5798 14.6184L18.3596 14.5ZM18.3596 3L18.575 2.87309L18.49 2.72883L18.3243 2.75251L18.3596 3ZM14.8596 3.5L14.8243 3.25251L14.7946 3.25675L14.7668 3.26788L14.8596 3.5ZM15.3596 15.3214L15.2807 15.5587L15.3526 15.5825L15.4256 15.5626L15.3596 15.3214ZM6.53618 12.3884L6.61504 12.1511L6.61504 12.1511L6.53618 12.3884ZM2.13503 8.39016C1.87149 8.92899 1.74143 9.36582 1.75044 9.80192C1.75941 10.2365 1.90619 10.6401 2.13486 11.1095L2.58436 10.8905C2.36543 10.4412 2.25704 10.1165 2.25033 9.7916C2.24365 9.46823 2.33739 9.11443 2.58419 8.60984L2.13503 8.39016ZM18.5798 14.6184C19.9885 11.9983 20.8021 10.3847 20.8377 8.7557C20.8735 7.1184 20.1248 5.50354 18.575 2.87309L18.1442 3.12691C19.7013 5.76968 20.3701 7.26853 20.3378 8.74478C20.3054 10.2293 19.5655 11.7291 18.1394 14.3816L18.5798 14.6184ZM18.3243 2.75251L14.8243 3.25251L14.895 3.74749L18.395 3.24749L18.3243 2.75251ZM14.7668 3.26788L2.26676 8.26788L2.45246 8.73212L14.9525 3.73212L14.7668 3.26788ZM15.4256 15.5626L18.4256 14.7411L18.2936 14.2589L15.2936 15.0803L15.4256 15.5626ZM14.6409 3.37891C13.2726 5.85034 12.656 7.88278 12.7648 9.80589C12.8738 11.7308 13.7074 13.5073 15.1586 15.4701L15.5606 15.1728C14.1387 13.2497 13.3653 11.5664 13.264 9.77764C13.1627 7.987 13.7327 6.05166 15.0783 3.62109L14.6409 3.37891ZM2.28075 11.2372L6.45732 12.6256L6.61504 12.1511L2.43847 10.7628L2.28075 11.2372ZM6.29262 12.4448C6.47884 13.249 6.69154 13.8759 6.95432 14.3307C7.21916 14.7889 7.54812 15.0939 7.97049 15.209C8.38591 15.3221 8.8411 15.2372 9.3301 15.0297C9.82043 14.8217 10.3749 14.4775 11.0046 14.0292L10.7146 13.6219C10.0937 14.0638 9.57451 14.3829 9.13481 14.5694C8.69379 14.7565 8.36258 14.7976 8.10189 14.7265C7.84815 14.6574 7.61128 14.4682 7.38723 14.0805C7.16113 13.6892 6.96187 13.1186 6.77974 12.332L6.29262 12.4448ZM10.7807 14.0628L15.2807 15.5587L15.4385 15.0842L10.9385 13.5883L10.7807 14.0628ZM6.45732 12.6256L10.7807 14.0628L10.9385 13.5883L6.61504 12.1511L6.45732 12.6256Z" fill="white"/>
<path d="M20.4844 9C20.4844 10.872 19.9959 12.5492 19.2259 13.747C18.4534 14.9487 17.4312 15.625 16.3594 15.625C15.2876 15.625 14.2654 14.9487 13.4928 13.747C12.7229 12.5492 12.2344 10.872 12.2344 9C12.2344 7.12803 12.7229 5.45076 13.4928 4.25304C14.2654 3.0513 15.2876 2.375 16.3594 2.375C17.4312 2.375 18.4534 3.0513 19.2259 4.25304C19.9959 5.45076 20.4844 7.12803 20.4844 9Z" fill="#FFFDFD" stroke="white" stroke-width="0.75"/>
<path d="M20.5 8.94253C20.5 12.481 18.875 15 16.8704 15C14.8658 15 13.5 12.481 13.5 8.94253C13.5 5.40405 14.8658 3 16.8704 3C18.875 3 20.5 5.40405 20.5 8.94253Z" fill="#243160"/>
</svg>
