<svg width="128" height="128" viewBox="0 0 128 128" fill="none" xmlns="http://www.w3.org/2000/svg">
<g clip-path="url(#clip0_65_17)">
<path d="M41.2885 88.1396C40.7804 71.4008 40.1246 68.7288 25.7138 60.7991L18.2021 67.1777C18.4912 82.8562 23.3969 89.563 35.3819 94.541L41.2885 88.1396Z" fill="#1A1C53"/>
<path d="M-4.27236 97.6003C-4.05327 100.838 -3.17803 102.023 -0.886554 103.544L10.7656 100.651L22.8275 97.6574L35.3819 94.541C23.3969 89.563 18.4912 82.8562 18.2021 67.1777L-4.27236 97.6003Z" fill="#F74D61"/>
<path d="M-4.27236 97.6003L-5.04308 96.9889L-5.2754 97.3033L-5.24894 97.6944L-4.27236 97.6003ZM-0.886554 103.544L-1.42512 104.408L-1.08172 104.636L-0.67978 104.536L-0.886554 103.544ZM41.2885 88.1396L41.9869 88.8386L42.2803 88.5206L42.267 88.0848L41.2885 88.1396ZM25.7138 60.7991L26.1857 59.8942L25.6156 59.5805L25.1057 60.0135L25.7138 60.7991ZM18.2021 67.1777L17.5939 66.3921L17.503 66.4694L17.4314 66.5663L18.2021 67.1777ZM35.3819 94.541L35.5887 95.5335L35.875 95.4624L36.0803 95.24L35.3819 94.541ZM10.7656 100.651L10.5588 99.6589L10.5588 99.6589L10.7656 100.651ZM-5.24894 97.6944C-5.13413 99.3909 -4.84038 100.682 -4.19072 101.769C-3.54422 102.851 -2.60725 103.624 -1.42512 104.408L-0.347989 102.679C-1.45734 101.943 -2.10372 101.363 -2.52248 100.663C-2.93808 99.9672 -3.19149 99.047 -3.29578 97.5061L-5.24894 97.6944ZM42.267 88.0848C42.0153 79.7918 41.738 74.6589 39.57 70.65C37.386 66.6114 33.3654 63.845 26.1857 59.8942L25.242 61.7039C32.473 65.6829 35.9856 68.2174 37.8593 71.6819C39.7489 75.1761 40.0536 79.7486 40.31 88.1944L42.267 88.0848ZM25.1057 60.0135L17.5939 66.3921L18.8102 67.9633L26.322 61.5847L25.1057 60.0135ZM17.4314 66.5663L-5.04308 96.9889L-3.50163 98.2117L18.9728 67.7891L17.4314 66.5663ZM36.0803 95.24L41.9869 88.8386L40.5902 87.4406L34.6836 93.842L36.0803 95.24ZM17.2233 67.2198C17.3696 75.1546 18.6846 80.9725 21.5911 85.4562C24.5015 89.9459 28.9212 92.9644 35.0024 95.4902L35.7615 93.5917C29.8577 91.1396 25.832 88.3157 23.221 84.2879C20.6061 80.254 19.3237 74.8794 19.1809 67.1356L17.2233 67.2198ZM-0.67978 104.536L10.9724 101.644L10.5588 99.6589L-1.09333 102.551L-0.67978 104.536ZM10.0562 101.371C11.5892 103.016 12.9614 104.218 14.2324 104.932C15.5183 105.654 16.7842 105.921 18.027 105.538C19.2417 105.163 20.2409 104.225 21.1225 102.98C22.0075 101.731 22.8491 100.066 23.7182 98.0602L21.9367 97.2545C21.0854 99.2195 20.3132 100.723 19.5566 101.791C18.7966 102.864 18.1265 103.391 17.5099 103.581C16.9214 103.763 16.1941 103.694 15.1905 103.13C14.1719 102.558 12.9583 101.523 11.475 99.932L10.0562 101.371ZM23.0342 98.6499L35.5887 95.5335L35.1752 93.5484L22.6207 96.6648L23.0342 98.6499ZM10.9724 101.644L23.0342 98.6499L22.6207 96.6648L10.5588 99.6589L10.9724 101.644Z" fill="white"/>
<path d="M40.7108 70.525C43.2543 74.9899 44.3536 79.7751 44.0913 83.8914C43.8288 88.0103 42.2102 91.4164 39.362 93.2216C36.5138 95.0267 32.9026 94.9351 29.3315 93.2458C25.7625 91.5576 22.273 88.2873 19.7296 83.8224C17.1861 79.3575 16.0868 74.5723 16.3491 70.456C16.6116 66.3371 18.2302 62.931 21.0784 61.1258C23.9266 59.3207 27.5378 59.4124 31.1089 61.1016C34.6779 62.7898 38.1674 66.0601 40.7108 70.525Z" fill="#FFFDFD" stroke="white" stroke-width="0.75"/>
<path d="M39.1287 71.0582C43.9565 79.5331 43.6222 87.9562 38.9704 90.9044C34.3186 93.8526 27.7124 89.8282 22.8846 81.3533C18.0568 72.8784 17.9463 65.1119 22.5981 62.1637C27.2499 59.2155 34.3009 62.5834 39.1287 71.0582Z" fill="#243160"/>
<path d="M85.3917 88.1396C85.8998 71.4008 86.5556 68.7288 100.966 60.7991L108.478 67.1777C108.189 82.8562 103.283 89.563 91.2982 94.541L85.3917 88.1396Z" fill="#1A1C53"/>
<path d="M130.953 97.6003C130.733 100.838 129.858 102.023 127.567 103.544L115.915 100.651L103.853 97.6574L91.2982 94.541C103.283 89.563 108.189 82.8562 108.478 67.1777L130.953 97.6003Z" fill="#F74D61"/>
<path d="M130.953 97.6003L131.723 96.9889L131.956 97.3033L131.929 97.6944L130.953 97.6003ZM127.567 103.544L128.105 104.408L127.762 104.636L127.36 104.536L127.567 103.544ZM85.3917 88.1396L84.6933 88.8386L84.3999 88.5206L84.4131 88.0848L85.3917 88.1396ZM100.966 60.7991L100.495 59.8942L101.065 59.5805L101.574 60.0135L100.966 60.7991ZM108.478 67.1777L109.086 66.3921L109.177 66.4694L109.249 66.5663L108.478 67.1777ZM91.2982 94.541L91.0915 95.5335L90.8052 95.4624L90.5999 95.24L91.2982 94.541ZM115.915 100.651L116.121 99.6589L116.121 99.6589L115.915 100.651ZM131.929 97.6944C131.814 99.3909 131.521 100.682 130.871 101.769C130.224 102.851 129.287 103.624 128.105 104.408L127.028 102.679C128.138 101.943 128.784 101.363 129.203 100.663C129.618 99.9672 129.872 99.047 129.976 97.5061L131.929 97.6944ZM84.4131 88.0848C84.6649 79.7918 84.9421 74.6589 87.1101 70.65C89.2942 66.6114 93.3147 63.845 100.495 59.8942L101.438 61.7039C94.2072 65.6829 90.6945 68.2174 88.8209 71.6819C86.9313 75.1761 86.6266 79.7486 86.3702 88.1944L84.4131 88.0848ZM101.574 60.0135L109.086 66.3921L107.87 67.9633L100.358 61.5847L101.574 60.0135ZM109.249 66.5663L131.723 96.9889L130.182 98.2117L107.707 67.7891L109.249 66.5663ZM90.5999 95.24L84.6933 88.8386L86.09 87.4406L91.9966 93.842L90.5999 95.24ZM109.457 67.2198C109.311 75.1546 107.996 80.9725 105.089 85.4562C102.179 89.9459 97.759 92.9644 91.6778 95.4902L90.9187 93.5917C96.8225 91.1396 100.848 88.3157 103.459 84.2879C106.074 80.254 107.356 74.8794 107.499 67.1356L109.457 67.2198ZM127.36 104.536L115.708 101.644L116.121 99.6589L127.774 102.551L127.36 104.536ZM116.624 101.371C115.091 103.016 113.719 104.218 112.448 104.932C111.162 105.654 109.896 105.921 108.653 105.538C107.438 105.163 106.439 104.225 105.558 102.98C104.673 101.731 103.831 100.066 102.962 98.0602L104.743 97.2545C105.595 99.2195 106.367 100.723 107.124 101.791C107.884 102.864 108.554 103.391 109.17 103.581C109.759 103.763 110.486 103.694 111.49 103.13C112.508 102.558 113.722 101.523 115.205 99.932L116.624 101.371ZM103.646 98.6499L91.0915 95.5335L91.505 93.5484L104.059 96.6648L103.646 98.6499ZM115.708 101.644L103.646 98.6499L104.059 96.6648L116.121 99.6589L115.708 101.644Z" fill="white"/>
<path d="M85.9694 70.525C83.4259 74.9899 82.3265 79.7751 82.5889 83.8914C82.8514 88.0103 84.47 91.4164 87.3182 93.2216C90.1664 95.0267 93.7776 94.9351 97.3487 93.2458C100.918 91.5576 104.407 88.2873 106.951 83.8224C109.494 79.3575 110.593 74.5723 110.331 70.456C110.069 66.3371 108.45 62.931 105.602 61.1258C102.754 59.3207 99.1424 59.4124 95.5713 61.1016C92.0023 62.7898 88.5128 66.0601 85.9694 70.525Z" fill="#FFFDFD" stroke="white" stroke-width="0.75"/>
<path d="M87.5515 71.0582C82.7237 79.5331 83.058 87.9562 87.7098 90.9044C92.3616 93.8526 98.9678 89.8282 103.796 81.3533C108.623 72.8784 108.734 65.1119 104.082 62.1637C99.4303 59.2155 92.3793 62.5834 87.5515 71.0582Z" fill="#243160"/>
<path d="M12.584 51L12.584 36.7L16.632 36.7L18.788 42.552C18.92 42.948 19.0447 43.3587 19.162 43.784C19.2793 44.2093 19.404 44.6347 19.536 45.06L19.624 45.06C19.756 44.6347 19.8807 44.2093 19.998 43.784C20.1153 43.3587 20.24 42.948 20.372 42.552L22.44 36.7L26.488 36.7L26.488 51L23.056 51L23.056 46.776C23.056 46.292 23.0853 45.7493 23.144 45.148C23.2027 44.532 23.2687 43.916 23.342 43.3C23.4153 42.684 23.4813 42.1413 23.54 41.672L23.452 41.672L22.264 45.104L20.504 49.834L18.48 49.834L16.72 45.104L15.576 41.672L15.488 41.672C15.5467 42.1413 15.6127 42.684 15.686 43.3C15.7593 43.916 15.8253 44.532 15.884 45.148C15.9427 45.7493 15.972 46.292 15.972 46.776L15.972 51L12.584 51ZM32.2161 51.264C31.5267 51.264 30.9327 51.11 30.4341 50.802C29.9501 50.4793 29.5761 50.0613 29.3121 49.548C29.0481 49.0347 28.9161 48.4773 28.9161 47.876C28.9161 46.732 29.3854 45.8373 30.3241 45.192C31.2627 44.532 32.7881 44.092 34.9001 43.872C34.8707 43.608 34.7974 43.3953 34.6801 43.234C34.5627 43.058 34.3941 42.9333 34.1741 42.86C33.9541 42.772 33.6827 42.728 33.3601 42.728C32.9641 42.728 32.5461 42.8087 32.1061 42.97C31.6661 43.1167 31.1601 43.344 30.5881 43.652L29.2681 41.188C29.7814 40.88 30.3021 40.616 30.8301 40.396C31.3581 40.176 31.8934 40.0147 32.4361 39.912C32.9787 39.7947 33.5361 39.736 34.1081 39.736C35.0614 39.736 35.8754 39.9193 36.5501 40.286C37.2394 40.638 37.7674 41.1953 38.1341 41.958C38.5007 42.706 38.6841 43.6813 38.6841 44.884L38.6841 51L35.6041 51L35.3401 49.944L35.2521 49.944C34.8121 50.34 34.3427 50.6627 33.8441 50.912C33.3601 51.1467 32.8174 51.264 32.2161 51.264ZM33.5361 48.36C33.8441 48.36 34.1007 48.294 34.3061 48.162C34.5114 48.0153 34.7094 47.832 34.9001 47.612L34.9001 46.116C34.2987 46.204 33.8221 46.3213 33.4701 46.468C33.1327 46.6147 32.8907 46.7833 32.7441 46.974C32.5974 47.1647 32.5241 47.3627 32.5241 47.568C32.5241 47.8173 32.6121 48.0153 32.7881 48.162C32.9641 48.294 33.2134 48.36 33.5361 48.36ZM41.151 51L41.151 40L44.935 40L44.935 51L41.151 51ZM43.043 38.636C42.4563 38.636 41.9723 38.46 41.591 38.108C41.2097 37.7413 41.019 37.2867 41.019 36.744C41.019 36.1867 41.2097 35.732 41.591 35.38C41.9723 35.028 42.4563 34.852 43.043 34.852C43.6443 34.852 44.1283 35.028 44.495 35.38C44.8763 35.732 45.067 36.1867 45.067 36.744C45.067 37.2867 44.8763 37.7413 44.495 38.108C44.1283 38.46 43.6443 38.636 43.043 38.636ZM50.8769 51.264C50.0262 51.264 49.3516 51.0953 48.8529 50.758C48.3689 50.406 48.0169 49.922 47.7969 49.306C47.5916 48.6753 47.4889 47.9493 47.4889 47.128L47.4889 35.688L51.2729 35.688L51.2729 47.26C51.2729 47.6267 51.3389 47.8833 51.4709 48.03C51.6176 48.162 51.7569 48.228 51.8889 48.228C51.9622 48.228 52.0209 48.228 52.0649 48.228C52.1236 48.2133 52.1969 48.1987 52.2849 48.184L52.7249 50.956C52.5342 51.044 52.2849 51.1173 51.9769 51.176C51.6689 51.2347 51.3022 51.264 50.8769 51.264ZM58.7539 51L58.7539 36.7L62.5379 36.7L62.5379 47.832L67.9499 47.832L67.9499 51L58.7539 51ZM70.1119 51L70.1119 40L73.8959 40L73.8959 51L70.1119 51ZM72.0039 38.636C71.4173 38.636 70.9333 38.46 70.5519 38.108C70.1706 37.7413 69.9799 37.2867 69.9799 36.744C69.9799 36.1867 70.1706 35.732 70.5519 35.38C70.9333 35.028 71.4173 34.852 72.0039 34.852C72.6053 34.852 73.0893 35.028 73.4559 35.38C73.8373 35.732 74.0279 36.1867 74.0279 36.744C74.0279 37.2867 73.8373 37.7413 73.4559 38.108C73.0893 38.46 72.6053 38.636 72.0039 38.636ZM79.8378 51.264C79.1338 51.264 78.3858 51.1247 77.5938 50.846C76.8165 50.5527 76.1418 50.1787 75.5698 49.724L77.2418 47.392C77.7552 47.7587 78.2318 48.0373 78.6718 48.228C79.1265 48.404 79.5445 48.492 79.9258 48.492C80.3218 48.492 80.6005 48.4407 80.7618 48.338C80.9378 48.2207 81.0258 48.052 81.0258 47.832C81.0258 47.6413 80.9232 47.48 80.7178 47.348C80.5272 47.2013 80.2705 47.0693 79.9478 46.952C79.6252 46.8347 79.2805 46.7027 78.9138 46.556C78.4885 46.38 78.0632 46.16 77.6378 45.896C77.2125 45.6173 76.8532 45.2653 76.5598 44.84C76.2812 44.4147 76.1418 43.9013 76.1418 43.3C76.1418 42.2147 76.5452 41.3493 77.3518 40.704C78.1585 40.0587 79.2072 39.736 80.4978 39.736C81.4072 39.736 82.1845 39.89 82.8298 40.198C83.4898 40.4913 84.0618 40.8213 84.5458 41.188L82.8738 43.432C82.4778 43.1387 82.0892 42.9113 81.7078 42.75C81.3265 42.5887 80.9672 42.508 80.6298 42.508C80.3072 42.508 80.0652 42.5593 79.9038 42.662C79.7425 42.75 79.6618 42.904 79.6618 43.124C79.6618 43.3147 79.7572 43.476 79.9478 43.608C80.1385 43.7253 80.3878 43.8427 80.6958 43.96C81.0185 44.0627 81.3632 44.18 81.7298 44.312C82.1698 44.4733 82.6025 44.686 83.0278 44.95C83.4678 45.214 83.8272 45.5587 84.1058 45.984C84.3992 46.4093 84.5458 46.952 84.5458 47.612C84.5458 48.3013 84.3625 48.9247 83.9958 49.482C83.6438 50.0247 83.1158 50.4573 82.4118 50.78C81.7225 51.1027 80.8645 51.264 79.8378 51.264ZM90.9291 51.264C89.5064 51.264 88.4724 50.8533 87.8271 50.032C87.1964 49.196 86.8811 48.1107 86.8811 46.776L86.8811 42.948L85.4291 42.948L85.4291 40.132L87.1011 40L87.5411 37.14L90.6651 37.14L90.6651 40L93.1731 40L93.1731 42.948L90.6651 42.948L90.6651 46.71C90.6651 47.3113 90.7971 47.7293 91.0611 47.964C91.3251 48.1987 91.6331 48.316 91.9851 48.316C92.1611 48.316 92.3298 48.3013 92.4911 48.272C92.6671 48.228 92.8211 48.184 92.9531 48.14L93.5251 50.868C93.2464 50.956 92.8944 51.044 92.4691 51.132C92.0438 51.22 91.5304 51.264 90.9291 51.264ZM100.31 51.264C99.239 51.264 98.271 51.0367 97.4057 50.582C96.555 50.1273 95.8804 49.4747 95.3817 48.624C94.883 47.7587 94.6337 46.7173 94.6337 45.5C94.6337 44.312 94.883 43.2927 95.3817 42.442C95.895 41.5767 96.555 40.9093 97.3617 40.44C98.1684 39.9707 99.019 39.736 99.9137 39.736C100.999 39.736 101.894 39.978 102.598 40.462C103.316 40.9313 103.844 41.5693 104.182 42.376C104.534 43.1827 104.71 44.0773 104.71 45.06C104.71 45.3827 104.688 45.698 104.644 46.006C104.614 46.2993 104.585 46.512 104.556 46.644L97.6257 46.644L97.5817 44.18L101.498 44.18C101.498 43.7547 101.388 43.388 101.168 43.08C100.962 42.7573 100.574 42.596 100.002 42.596C99.679 42.596 99.371 42.684 99.0777 42.86C98.7844 43.036 98.5424 43.3367 98.3517 43.762C98.161 44.1873 98.0657 44.7667 98.0657 45.5C98.0657 46.2773 98.205 46.8787 98.4837 47.304C98.7624 47.7147 99.1144 48.0007 99.5397 48.162C99.965 48.3233 100.398 48.404 100.838 48.404C101.219 48.404 101.586 48.3527 101.938 48.25C102.304 48.1327 102.686 47.964 103.082 47.744L104.314 49.988C103.727 50.3987 103.067 50.714 102.334 50.934C101.6 51.154 100.926 51.264 100.31 51.264ZM106.786 51L106.786 40L109.866 40L110.13 41.892L110.218 41.892C110.628 41.144 111.112 40.6013 111.67 40.264C112.242 39.912 112.799 39.736 113.342 39.736C113.679 39.736 113.95 39.758 114.156 39.802C114.376 39.8313 114.559 39.8827 114.706 39.956L114.09 43.212C113.899 43.168 113.708 43.1313 113.518 43.102C113.327 43.058 113.107 43.036 112.858 43.036C112.462 43.036 112.044 43.1753 111.604 43.454C111.178 43.718 110.834 44.1947 110.57 44.884L110.57 51L106.786 51Z" fill="white"/>
<path d="M12.584 51L11.584 51L11.584 52L12.584 52L12.584 51ZM12.584 36.7L12.584 35.7L11.584 35.7L11.584 36.7L12.584 36.7ZM16.632 36.7L17.5703 36.3543L17.3293 35.7L16.632 35.7L16.632 36.7ZM18.788 42.552L19.7367 42.2358L19.7317 42.221L19.7263 42.2063L18.788 42.552ZM19.162 43.784L20.126 43.5181L20.126 43.5181L19.162 43.784ZM19.536 45.06L18.5809 45.3564L18.7993 46.06L19.536 46.06L19.536 45.06ZM19.624 45.06L19.624 46.06L20.3607 46.06L20.5791 45.3564L19.624 45.06ZM19.998 43.784L19.034 43.5181L19.034 43.5181L19.998 43.784ZM20.372 42.552L19.4291 42.2188L19.4262 42.2273L19.4233 42.2358L20.372 42.552ZM22.44 36.7L22.44 35.7L21.7328 35.7L21.4971 36.3668L22.44 36.7ZM26.488 36.7L27.488 36.7L27.488 35.7L26.488 35.7L26.488 36.7ZM26.488 51L26.488 52L27.488 52L27.488 51L26.488 51ZM23.056 51L22.056 51L22.056 52L23.056 52L23.056 51ZM23.144 45.148L24.1393 45.2451L24.1395 45.2428L23.144 45.148ZM23.54 41.672L24.5323 41.796L24.6728 40.672L23.54 40.672L23.54 41.672ZM23.452 41.672L23.452 40.672L22.7399 40.672L22.507 41.3449L23.452 41.672ZM22.264 45.104L23.2012 45.4527L23.2052 45.442L23.209 45.4311L22.264 45.104ZM20.504 49.834L20.504 50.834L21.1989 50.834L21.4412 50.1827L20.504 49.834ZM18.48 49.834L17.5428 50.1827L17.7851 50.834L18.48 50.834L18.48 49.834ZM16.72 45.104L15.7713 45.4202L15.7768 45.4366L15.7828 45.4527L16.72 45.104ZM15.576 41.672L16.5247 41.3558L16.2968 40.672L15.576 40.672L15.576 41.672ZM15.488 41.672L15.488 40.672L14.3552 40.672L14.4957 41.796L15.488 41.672ZM15.686 43.3L16.679 43.1818L16.679 43.1818L15.686 43.3ZM15.884 45.148L14.8885 45.2428L14.8887 45.2451L15.884 45.148ZM15.972 51L15.972 52L16.972 52L16.972 51L15.972 51ZM13.584 51L13.584 36.7L11.584 36.7L11.584 51L13.584 51ZM12.584 37.7L16.632 37.7L16.632 35.7L12.584 35.7L12.584 37.7ZM15.6937 37.0457L17.8497 42.8977L19.7263 42.2063L17.5703 36.3543L15.6937 37.0457ZM17.8393 42.8682C17.9655 43.2467 18.0851 43.6405 18.198 44.0499L20.126 43.5181C20.0043 43.0768 19.8745 42.6493 19.7367 42.2358L17.8393 42.8682ZM18.198 44.0499C18.3182 44.4856 18.4458 44.9211 18.5809 45.3564L20.4911 44.7636C20.3622 44.3483 20.2405 43.9331 20.126 43.5181L18.198 44.0499ZM19.536 46.06L19.624 46.06L19.624 44.06L19.536 44.06L19.536 46.06ZM20.5791 45.3564C20.7142 44.9211 20.8418 44.4856 20.962 44.0499L19.034 43.5181C18.9195 43.9331 18.7978 44.3483 18.6689 44.7636L20.5791 45.3564ZM20.962 44.0499C21.0749 43.6405 21.1945 43.2467 21.3207 42.8682L19.4233 42.2358C19.2855 42.6493 19.1557 43.0768 19.034 43.5181L20.962 44.0499ZM21.3149 42.8852L23.3829 37.0332L21.4971 36.3668L19.4291 42.2188L21.3149 42.8852ZM22.44 37.7L26.488 37.7L26.488 35.7L22.44 35.7L22.44 37.7ZM25.488 36.7L25.488 51L27.488 51L27.488 36.7L25.488 36.7ZM26.488 50L23.056 50L23.056 52L26.488 52L26.488 50ZM24.056 51L24.056 46.776L22.056 46.776L22.056 51L24.056 51ZM24.056 46.776C24.056 46.3312 24.083 45.8217 24.1393 45.2451L22.1487 45.0509C22.0876 45.677 22.056 46.2528 22.056 46.776L24.056 46.776ZM24.1395 45.2428C24.1974 44.6346 24.2626 44.0264 24.335 43.4182L22.349 43.1818C22.2748 43.8056 22.2079 44.4294 22.1485 45.0532L24.1395 45.2428ZM24.335 43.4182C24.4082 42.8036 24.4739 42.2629 24.5323 41.796L22.5477 41.548C22.4888 42.0197 22.4225 42.5644 22.349 43.1818L24.335 43.4182ZM23.54 40.672L23.452 40.672L23.452 42.672L23.54 42.672L23.54 40.672ZM22.507 41.3449L21.319 44.7769L23.209 45.4311L24.397 41.9991L22.507 41.3449ZM21.3268 44.7553L19.5668 49.4853L21.4412 50.1827L23.2012 45.4527L21.3268 44.7553ZM20.504 48.834L18.48 48.834L18.48 50.834L20.504 50.834L20.504 48.834ZM19.4172 49.4853L17.6572 44.7553L15.7828 45.4527L17.5428 50.1827L19.4172 49.4853ZM17.6687 44.7878L16.5247 41.3558L14.6273 41.9882L15.7713 45.4202L17.6687 44.7878ZM15.576 40.672L15.488 40.672L15.488 42.672L15.576 42.672L15.576 40.672ZM14.4957 41.796C14.5541 42.2629 14.6198 42.8036 14.693 43.4182L16.679 43.1818C16.6055 42.5644 16.5392 42.0197 16.4803 41.548L14.4957 41.796ZM14.693 43.4182C14.7654 44.0264 14.8306 44.6346 14.8885 45.2428L16.8795 45.0532C16.8201 44.4294 16.7532 43.8056 16.679 43.1818L14.693 43.4182ZM14.8887 45.2451C14.945 45.8217 14.972 46.3312 14.972 46.776L16.972 46.776C16.972 46.2528 16.9404 45.677 16.8793 45.0509L14.8887 45.2451ZM14.972 46.776L14.972 51L16.972 51L16.972 46.776L14.972 46.776ZM15.972 50L12.584 50L12.584 52L15.972 52L15.972 50ZM30.4341 50.802L29.8794 51.6341L29.8938 51.6437L29.9086 51.6528L30.4341 50.802ZM29.3121 49.548L28.4228 50.0053L28.4228 50.0053L29.3121 49.548ZM30.3241 45.192L30.8906 46.0161L30.8993 46.01L30.3241 45.192ZM34.9001 43.872L35.0037 44.8666L36.0052 44.7623L35.894 43.7616L34.9001 43.872ZM34.6801 43.234L33.848 43.7887L33.8593 43.8057L33.8713 43.8222L34.6801 43.234ZM34.1741 42.86L33.8027 43.7885L33.83 43.7994L33.8579 43.8087L34.1741 42.86ZM32.1061 42.97L32.4223 43.9187L32.4364 43.914L32.4503 43.9089L32.1061 42.97ZM30.5881 43.652L29.7066 44.1242L30.1798 45.0076L31.0622 44.5325L30.5881 43.652ZM29.2681 41.188L28.7536 40.3305L27.9368 40.8206L28.3866 41.6602L29.2681 41.188ZM30.8301 40.396L30.4455 39.4729L30.4455 39.4729L30.8301 40.396ZM32.4361 39.912L32.622 40.8946L32.6347 40.8922L32.6474 40.8894L32.4361 39.912ZM36.5501 40.286L36.0726 41.1646L36.0839 41.1708L36.0953 41.1766L36.5501 40.286ZM38.1341 41.958L37.2328 42.3913L37.2362 42.3982L38.1341 41.958ZM38.6841 51L38.6841 52L39.6841 52L39.6841 51L38.6841 51ZM35.6041 51L34.6339 51.2425L34.8233 52L35.6041 52L35.6041 51ZM35.3401 49.944L36.3102 49.7015L36.1209 48.944L35.3401 48.944L35.3401 49.944ZM35.2521 49.944L35.2521 48.944L34.8683 48.944L34.5831 49.2007L35.2521 49.944ZM33.8441 50.912L34.2804 51.8119L34.2913 51.8064L33.8441 50.912ZM34.3061 48.162L34.8468 49.0032L34.8674 48.99L34.8873 48.9757L34.3061 48.162ZM34.9001 47.612L35.6558 48.2669L35.9001 47.985L35.9001 47.612L34.9001 47.612ZM34.9001 46.116L35.9001 46.116L35.9001 44.959L34.7553 45.1265L34.9001 46.116ZM33.4701 46.468L33.0855 45.5449L33.0784 45.5479L33.0714 45.5509L33.4701 46.468ZM32.7441 46.974L31.9515 46.3643L31.9515 46.3643L32.7441 46.974ZM32.7881 48.162L32.1479 48.9302L32.1676 48.9466L32.1881 48.962L32.7881 48.162ZM32.2161 50.264C31.6792 50.264 31.2743 50.1456 30.9596 49.9512L29.9086 51.6528C30.5912 52.0744 31.3743 52.264 32.2161 52.264L32.2161 50.264ZM30.9888 49.9699C30.6452 49.7409 30.3869 49.4514 30.2014 49.0907L28.4228 50.0053C28.7652 50.6712 29.2549 51.2178 29.8794 51.6341L30.9888 49.9699ZM30.2014 49.0907C30.0132 48.7248 29.9161 48.3251 29.9161 47.876L27.9161 47.876C27.9161 48.6296 28.083 49.3446 28.4228 50.0053L30.2014 49.0907ZM29.9161 47.876C29.9161 47.0596 30.2247 46.4739 30.8906 46.016L29.7575 44.368C28.5461 45.2008 27.9161 46.4044 27.9161 47.876L29.9161 47.876ZM30.8993 46.01C31.6241 45.5003 32.9395 45.0816 35.0037 44.8666L34.7965 42.8774C32.6366 43.1024 30.9013 43.5637 29.7489 44.374L30.8993 46.01ZM35.894 43.7616C35.8516 43.3802 35.7367 42.9867 35.4888 42.6458L33.8713 43.8222C33.8581 43.804 33.8899 43.8358 33.9062 43.9824L35.894 43.7616ZM35.5121 42.6793C35.2594 42.3002 34.8997 42.0478 34.4903 41.9113L33.8579 43.8087C33.8685 43.8122 33.874 43.8149 33.8755 43.8157C33.8769 43.8164 33.8751 43.8156 33.8712 43.8127C33.8672 43.8097 33.8626 43.8057 33.8579 43.8008C33.8532 43.796 33.85 43.7916 33.848 43.7887L35.5121 42.6793ZM34.5455 41.9315C34.173 41.7825 33.7669 41.728 33.3601 41.728L33.3601 43.728C33.5986 43.728 33.7351 43.7615 33.8027 43.7885L34.5455 41.9315ZM33.3601 41.728C32.8273 41.728 32.2923 41.8366 31.7618 42.0311L32.4503 43.9089C32.7998 43.7807 33.1009 43.728 33.3601 43.728L33.3601 41.728ZM31.7899 42.0213C31.2786 42.1917 30.7182 42.4462 30.114 42.7715L31.0622 44.5325C31.602 44.2418 32.0536 44.0416 32.4223 43.9187L31.7899 42.0213ZM31.4696 43.1798L30.1496 40.7158L28.3866 41.6602L29.7066 44.1242L31.4696 43.1798ZM29.7826 42.0455C30.2562 41.7613 30.7335 41.5196 31.2147 41.3191L30.4455 39.4729C29.8706 39.7124 29.3066 39.9987 28.7536 40.3305L29.7826 42.0455ZM31.2147 41.3191C31.681 41.1248 32.1498 40.9839 32.622 40.8946L32.2502 38.9294C31.637 39.0454 31.0352 39.2272 30.4455 39.4729L31.2147 41.3191ZM32.6474 40.8894C33.1186 40.7875 33.605 40.736 34.1081 40.736L34.1081 38.736C33.4672 38.736 32.8389 38.8018 32.2247 38.9346L32.6474 40.8894ZM34.1081 40.736C34.9343 40.736 35.5758 40.8946 36.0726 41.1646L37.0276 39.4074C36.1751 38.944 35.1885 38.736 34.1081 38.736L34.1081 40.736ZM36.0953 41.1766C36.5714 41.4197 36.9516 41.8063 37.2328 42.3913L39.0353 41.5247C38.5832 40.5844 37.9074 39.8563 37.0049 39.3954L36.0953 41.1766ZM37.2362 42.3982C37.5126 42.9621 37.6841 43.7711 37.6841 44.884L39.6841 44.884C39.6841 43.5916 39.4889 42.4499 39.032 41.5178L37.2362 42.3982ZM37.6841 44.884L37.6841 51L39.6841 51L39.6841 44.884L37.6841 44.884ZM38.6841 50L35.6041 50L35.6041 52L38.6841 52L38.6841 50ZM36.5742 50.7575L36.3102 49.7015L34.3699 50.1865L34.6339 51.2425L36.5742 50.7575ZM35.3401 48.944L35.2521 48.944L35.2521 50.944L35.3401 50.944L35.3401 48.944ZM34.5831 49.2007C34.2058 49.5403 33.8104 49.8108 33.3969 50.0176L34.2913 51.8064C34.8751 51.5145 35.4184 51.1397 35.921 50.6873L34.5831 49.2007ZM33.4078 50.0122C33.0751 50.1735 32.6843 50.264 32.2161 50.264L32.2161 52.264C32.9506 52.264 33.6451 52.1198 34.2804 51.8118L33.4078 50.0122ZM33.5361 49.36C33.9859 49.36 34.4428 49.2629 34.8468 49.0032L33.7653 47.3208C33.7587 47.3251 33.7023 47.36 33.5361 47.36L33.5361 49.36ZM34.8873 48.9757C35.1658 48.7768 35.4211 48.5377 35.6558 48.2669L34.1444 46.9571C33.9977 47.1263 33.857 47.2538 33.7248 47.3483L34.8873 48.9757ZM35.9001 47.612L35.9001 46.116L33.9001 46.116L33.9001 47.612L35.9001 47.612ZM34.7553 45.1265C34.1141 45.2204 33.5458 45.3531 33.0855 45.5449L33.8547 47.3911C34.0983 47.2896 34.4834 47.1876 35.0449 47.1055L34.7553 45.1265ZM33.0714 45.5509C32.654 45.7324 32.2418 45.9868 31.9515 46.3643L33.5367 47.5837C33.5354 47.5854 33.5521 47.5634 33.6074 47.5249C33.6627 47.4864 33.7467 47.4382 33.8688 47.3851L33.0714 45.5509ZM31.9515 46.3643C31.6943 46.6986 31.5241 47.1058 31.5241 47.568L33.5241 47.568C33.5241 47.5766 33.5233 47.5855 33.5217 47.5943C33.5201 47.6029 33.5181 47.6093 33.5168 47.6128C33.5141 47.6202 33.5163 47.6103 33.5367 47.5837L31.9515 46.3643ZM31.5241 47.568C31.5241 48.0843 31.722 48.5753 32.1479 48.9302L33.4283 47.3938C33.4511 47.4128 33.4821 47.4483 33.5039 47.4974C33.5247 47.5441 33.5241 47.5737 33.5241 47.568L31.5241 47.568ZM32.1881 48.962C32.6013 49.2719 33.0939 49.36 33.5361 49.36L33.5361 47.36C33.4405 47.36 33.3863 47.35 33.363 47.3438C33.3416 47.3381 33.357 47.3387 33.3881 47.362L32.1881 48.962ZM41.151 51L40.151 51L40.151 52L41.151 52L41.151 51ZM41.151 40L41.151 39L40.151 39L40.151 40L41.151 40ZM44.935 40L45.935 40L45.935 39L44.935 39L44.935 40ZM44.935 51L44.935 52L45.935 52L45.935 51L44.935 51ZM41.591 38.108L40.8979 38.8288L40.9052 38.8359L40.9127 38.8428L41.591 38.108ZM44.495 35.38L43.8025 36.1014L43.8095 36.1082L43.8167 36.1148L44.495 35.38ZM44.495 38.108L45.1875 38.8294L45.1881 38.8288L44.495 38.108ZM42.151 51L42.151 40L40.151 40L40.151 51L42.151 51ZM41.151 41L44.935 41L44.935 39L41.151 39L41.151 41ZM43.935 40L43.935 51L45.935 51L45.935 40L43.935 40ZM44.935 50L41.151 50L41.151 52L44.935 52L44.935 50ZM43.043 37.636C42.6724 37.636 42.4415 37.5322 42.2693 37.3732L40.9127 38.8428C41.5032 39.3878 42.2403 39.636 43.043 39.636L43.043 37.636ZM42.2841 37.3872C42.1045 37.2144 42.019 37.0226 42.019 36.744L40.019 36.744C40.019 37.5508 40.3149 38.2682 40.8979 38.8288L42.2841 37.3872ZM42.019 36.744C42.019 36.4426 42.1094 36.2624 42.2693 36.1148L40.9127 34.6452C40.3099 35.2016 40.019 35.9307 40.019 36.744L42.019 36.744ZM42.2693 36.1148C42.4415 35.9558 42.6724 35.852 43.043 35.852L43.043 33.852C42.2403 33.852 41.5032 34.1002 40.9127 34.6452L42.2693 36.1148ZM43.043 35.852C43.4367 35.852 43.6555 35.9603 43.8025 36.1014L45.1875 34.6586C44.6011 34.0957 43.852 33.852 43.043 33.852L43.043 35.852ZM43.8167 36.1148C43.9766 36.2624 44.067 36.4426 44.067 36.744L46.067 36.744C46.067 35.9307 45.7761 35.2016 45.1733 34.6452L43.8167 36.1148ZM44.067 36.744C44.067 37.0226 43.9815 37.2144 43.8019 37.3872L45.1881 38.8288C45.7711 38.2682 46.067 37.5508 46.067 36.744L44.067 36.744ZM43.8025 37.3866C43.6555 37.5277 43.4367 37.636 43.043 37.636L43.043 39.636C43.852 39.636 44.6011 39.3923 45.1875 38.8294L43.8025 37.3866ZM48.8529 50.758L48.2647 51.5667L48.2785 51.5767L48.2926 51.5863L48.8529 50.758ZM47.7969 49.306L46.846 49.6156L46.8504 49.629L46.8551 49.6423L47.7969 49.306ZM47.4889 35.688L47.4889 34.688L46.4889 34.688L46.4889 35.688L47.4889 35.688ZM51.2729 35.688L52.2729 35.688L52.2729 34.688L51.2729 34.688L51.2729 35.688ZM51.4709 48.03L50.7276 48.699L50.7628 48.7381L50.8019 48.7733L51.4709 48.03ZM52.0649 48.228L52.0649 49.228L52.188 49.228L52.3074 49.1981L52.0649 48.228ZM52.2849 48.184L53.2725 48.0272L53.1145 47.0319L52.1205 47.1976L52.2849 48.184ZM52.7249 50.956L53.1439 51.864L53.8312 51.5468L53.7125 50.7992L52.7249 50.956ZM51.9769 51.176L52.164 52.1583L52.164 52.1583L51.9769 51.176ZM50.8769 50.264C50.1467 50.264 49.6911 50.1177 49.4132 49.9297L48.2926 51.5863C49.012 52.073 49.9058 52.264 50.8769 52.264L50.8769 50.264ZM49.4411 49.9493C49.1349 49.7266 48.8976 49.4146 48.7386 48.9697L46.8551 49.6423C47.1362 50.4294 47.6029 51.0854 48.2647 51.5667L49.4411 49.9493ZM48.7478 48.9964C48.5817 48.4863 48.4889 47.8682 48.4889 47.128L46.4889 47.128C46.4889 48.0304 46.6015 48.8644 46.846 49.6156L48.7478 48.9964ZM48.4889 47.128L48.4889 35.688L46.4889 35.688L46.4889 47.128L48.4889 47.128ZM47.4889 36.688L51.2729 36.688L51.2729 34.688L47.4889 34.688L47.4889 36.688ZM50.2729 35.688L50.2729 47.26L52.2729 47.26L52.2729 35.688L50.2729 35.688ZM50.2729 47.26C50.2729 47.6858 50.3373 48.2653 50.7276 48.699L52.2142 47.361C52.2865 47.4414 52.2969 47.5019 52.2909 47.4785C52.2885 47.4691 52.2837 47.447 52.2797 47.4091C52.2757 47.3714 52.2729 47.3222 52.2729 47.26L50.2729 47.26ZM50.8019 48.7733C51.0437 48.9909 51.4122 49.228 51.8889 49.228L51.8889 47.228C51.9938 47.228 52.0717 47.255 52.1135 47.2748C52.152 47.293 52.1602 47.305 52.1399 47.2867L50.8019 48.7733ZM51.8889 49.228C51.889 49.228 51.8892 49.228 51.8893 49.228C51.8895 49.228 51.8896 49.228 51.8897 49.228C51.8899 49.228 51.89 49.228 51.8902 49.228C51.8903 49.228 51.8905 49.228 51.8906 49.228C51.8907 49.228 51.8909 49.228 51.891 49.228C51.8912 49.228 51.8913 49.228 51.8915 49.228C51.8916 49.228 51.8917 49.228 51.8919 49.228C51.892 49.228 51.8922 49.228 51.8923 49.228C51.8925 49.228 51.8926 49.228 51.8927 49.228C51.8929 49.228 51.893 49.228 51.8932 49.228C51.8933 49.228 51.8935 49.228 51.8936 49.228C51.8937 49.228 51.8939 49.228 51.894 49.228C51.8942 49.228 51.8943 49.228 51.8944 49.228C51.8946 49.228 51.8947 49.228 51.8949 49.228C51.895 49.228 51.8952 49.228 51.8953 49.228C51.8954 49.228 51.8956 49.228 51.8957 49.228C51.8959 49.228 51.896 49.228 51.8961 49.228C51.8963 49.228 51.8964 49.228 51.8966 49.228C51.8967 49.228 51.8969 49.228 51.897 49.228C51.8971 49.228 51.8973 49.228 51.8974 49.228C51.8976 49.228 51.8977 49.228 51.8978 49.228C51.898 49.228 51.8981 49.228 51.8983 49.228C51.8984 49.228 51.8985 49.228 51.8987 49.228C51.8988 49.228 51.899 49.228 51.8991 49.228C51.8992 49.228 51.8994 49.228 51.8995 49.228C51.8997 49.228 51.8998 49.228 51.8999 49.228C51.9001 49.228 51.9002 49.228 51.9004 49.228C51.9005 49.228 51.9007 49.228 51.9008 49.228C51.9009 49.228 51.9011 49.228 51.9012 49.228C51.9014 49.228 51.9015 49.228 51.9016 49.228C51.9018 49.228 51.9019 49.228 51.902 49.228C51.9022 49.228 51.9023 49.228 51.9025 49.228C51.9026 49.228 51.9027 49.228 51.9029 49.228C51.903 49.228 51.9032 49.228 51.9033 49.228C51.9034 49.228 51.9036 49.228 51.9037 49.228C51.9039 49.228 51.904 49.228 51.9041 49.228C51.9043 49.228 51.9044 49.228 51.9046 49.228C51.9047 49.228 51.9048 49.228 51.905 49.228C51.9051 49.228 51.9053 49.228 51.9054 49.228C51.9055 49.228 51.9057 49.228 51.9058 49.228C51.9059 49.228 51.9061 49.228 51.9062 49.228C51.9064 49.228 51.9065 49.228 51.9066 49.228C51.9068 49.228 51.9069 49.228 51.9071 49.228C51.9072 49.228 51.9073 49.228 51.9075 49.228C51.9076 49.228 51.9077 49.228 51.9079 49.228C51.908 49.228 51.9082 49.228 51.9083 49.228C51.9084 49.228 51.9086 49.228 51.9087 49.228C51.9089 49.228 51.909 49.228 51.9091 49.228C51.9093 49.228 51.9094 49.228 51.9095 49.228C51.9097 49.228 51.9098 49.228 51.91 49.228C51.9101 49.228 51.9102 49.228 51.9104 49.228C51.9105 49.228 51.9106 49.228 51.9108 49.228C51.9109 49.228 51.9111 49.228 51.9112 49.228C51.9113 49.228 51.9115 49.228 51.9116 49.228C51.9117 49.228 51.9119 49.228 51.912 49.228C51.9122 49.228 51.9123 49.228 51.9124 49.228C51.9126 49.228 51.9127 49.228 51.9128 49.228C51.913 49.228 51.9131 49.228 51.9132 49.228C51.9134 49.228 51.9135 49.228 51.9137 49.228C51.9138 49.228 51.9139 49.228 51.9141 49.228C51.9142 49.228 51.9143 49.228 51.9145 49.228C51.9146 49.228 51.9147 49.228 51.9149 49.228C51.915 49.228 51.9152 49.228 51.9153 49.228C51.9154 49.228 51.9156 49.228 51.9157 49.228C51.9158 49.228 51.916 49.228 51.9161 49.228C51.9162 49.228 51.9164 49.228 51.9165 49.228C51.9167 49.228 51.9168 49.228 51.9169 49.228C51.9171 49.228 51.9172 49.228 51.9173 49.228C51.9175 49.228 51.9176 49.228 51.9177 49.228C51.9179 49.228 51.918 49.228 51.9181 49.228C51.9183 49.228 51.9184 49.228 51.9186 49.228C51.9187 49.228 51.9188 49.228 51.919 49.228C51.9191 49.228 51.9192 49.228 51.9194 49.228C51.9195 49.228 51.9196 49.228 51.9198 49.228C51.9199 49.228 51.92 49.228 51.9202 49.228C51.9203 49.228 51.9204 49.228 51.9206 49.228C51.9207 49.228 51.9208 49.228 51.921 49.228C51.9211 49.228 51.9213 49.228 51.9214 49.228C51.9215 49.228 51.9217 49.228 51.9218 49.228C51.9219 49.228 51.9221 49.228 51.9222 49.228C51.9223 49.228 51.9225 49.228 51.9226 49.228C51.9227 49.228 51.9229 49.228 51.923 49.228C51.9231 49.228 51.9233 49.228 51.9234 49.228C51.9235 49.228 51.9237 49.228 51.9238 49.228C51.9239 49.228 51.9241 49.228 51.9242 49.228C51.9243 49.228 51.9245 49.228 51.9246 49.228C51.9247 49.228 51.9249 49.228 51.925 49.228C51.9251 49.228 51.9253 49.228 51.9254 49.228C51.9255 49.228 51.9257 49.228 51.9258 49.228C51.9259 49.228 51.9261 49.228 51.9262 49.228C51.9263 49.228 51.9265 49.228 51.9266 49.228C51.9267 49.228 51.9269 49.228 51.927 49.228C51.9271 49.228 51.9273 49.228 51.9274 49.228C51.9275 49.228 51.9277 49.228 51.9278 49.228C51.9279 49.228 51.9281 49.228 51.9282 49.228C51.9283 49.228 51.9285 49.228 51.9286 49.228C51.9287 49.228 51.9289 49.228 51.929 49.228C51.9291 49.228 51.9293 49.228 51.9294 49.228C51.9295 49.228 51.9297 49.228 51.9298 49.228C51.9299 49.228 51.93 49.228 51.9302 49.228C51.9303 49.228 51.9304 49.228 51.9306 49.228C51.9307 49.228 51.9308 49.228 51.931 49.228C51.9311 49.228 51.9312 49.228 51.9314 49.228C51.9315 49.228 51.9316 49.228 51.9318 49.228C51.9319 49.228 51.932 49.228 51.9322 49.228C51.9323 49.228 51.9324 49.228 51.9326 49.228C51.9327 49.228 51.9328 49.228 51.9329 49.228C51.9331 49.228 51.9332 49.228 51.9333 49.228C51.9335 49.228 51.9336 49.228 51.9337 49.228C51.9339 49.228 51.934 49.228 51.9341 49.228C51.9343 49.228 51.9344 49.228 51.9345 49.228C51.9346 49.228 51.9348 49.228 51.9349 49.228C51.935 49.228 51.9352 49.228 51.9353 49.228C51.9354 49.228 51.9356 49.228 51.9357 49.228C51.9358 49.228 51.936 49.228 51.9361 49.228C51.9362 49.228 51.9363 49.228 51.9365 49.228C51.9366 49.228 51.9367 49.228 51.9369 49.228C51.937 49.228 51.9371 49.228 51.9373 49.228C51.9374 49.228 51.9375 49.228 51.9376 49.228C51.9378 49.228 51.9379 49.228 51.938 49.228C51.9382 49.228 51.9383 49.228 51.9384 49.228C51.9386 49.228 51.9387 49.228 51.9388 49.228C51.9389 49.228 51.9391 49.228 51.9392 49.228C51.9393 49.228 51.9395 49.228 51.9396 49.228C51.9397 49.228 51.9398 49.228 51.94 49.228C51.9401 49.228 51.9402 49.228 51.9404 49.228C51.9405 49.228 51.9406 49.228 51.9408 49.228C51.9409 49.228 51.941 49.228 51.9411 49.228C51.9413 49.228 51.9414 49.228 51.9415 49.228C51.9417 49.228 51.9418 49.228 51.9419 49.228C51.942 49.228 51.9422 49.228 51.9423 49.228C51.9424 49.228 51.9426 49.228 51.9427 49.228C51.9428 49.228 51.9429 49.228 51.9431 49.228C51.9432 49.228 51.9433 49.228 51.9435 49.228C51.9436 49.228 51.9437 49.228 51.9438 49.228C51.944 49.228 51.9441 49.228 51.9442 49.228C51.9444 49.228 51.9445 49.228 51.9446 49.228C51.9447 49.228 51.9449 49.228 51.945 49.228C51.9451 49.228 51.9452 49.228 51.9454 49.228C51.9455 49.228 51.9456 49.228 51.9458 49.228C51.9459 49.228 51.946 49.228 51.9461 49.228C51.9463 49.228 51.9464 49.228 51.9465 49.228C51.9466 49.228 51.9468 49.228 51.9469 49.228C51.947 49.228 51.9472 49.228 51.9473 49.228C51.9474 49.228 51.9475 49.228 51.9477 49.228C51.9478 49.228 51.9479 49.228 51.948 49.228C51.9482 49.228 51.9483 49.228 51.9484 49.228C51.9486 49.228 51.9487 49.228 51.9488 49.228C51.9489 49.228 51.9491 49.228 51.9492 49.228C51.9493 49.228 51.9494 49.228 51.9496 49.228C51.9497 49.228 51.9498 49.228 51.9499 49.228C51.9501 49.228 51.9502 49.228 51.9503 49.228C51.9505 49.228 51.9506 49.228 51.9507 49.228C51.9508 49.228 51.951 49.228 51.9511 49.228C51.9512 49.228 51.9513 49.228 51.9515 49.228C51.9516 49.228 51.9517 49.228 51.9518 49.228C51.952 49.228 51.9521 49.228 51.9522 49.228C51.9523 49.228 51.9525 49.228 51.9526 49.228C51.9527 49.228 51.9528 49.228 51.953 49.228C51.9531 49.228 51.9532 49.228 51.9533 49.228C51.9535 49.228 51.9536 49.228 51.9537 49.228C51.9538 49.228 51.954 49.228 51.9541 49.228C51.9542 49.228 51.9543 49.228 51.9545 49.228C51.9546 49.228 51.9547 49.228 51.9548 49.228C51.955 49.228 51.9551 49.228 51.9552 49.228C51.9553 49.228 51.9555 49.228 51.9556 49.228C51.9557 49.228 51.9558 49.228 51.956 49.228C51.9561 49.228 51.9562 49.228 51.9563 49.228C51.9565 49.228 51.9566 49.228 51.9567 49.228C51.9568 49.228 51.957 49.228 51.9571 49.228C51.9572 49.228 51.9573 49.228 51.9575 49.228C51.9576 49.228 51.9577 49.228 51.9578 49.228C51.958 49.228 51.9581 49.228 51.9582 49.228C51.9583 49.228 51.9585 49.228 51.9586 49.228C51.9587 49.228 51.9588 49.228 51.9589 49.228C51.9591 49.228 51.9592 49.228 51.9593 49.228C51.9594 49.228 51.9596 49.228 51.9597 49.228C51.9598 49.228 51.9599 49.228 51.9601 49.228C51.9602 49.228 51.9603 49.228 51.9604 49.228C51.9605 49.228 51.9607 49.228 51.9608 49.228C51.9609 49.228 51.961 49.228 51.9612 49.228C51.9613 49.228 51.9614 49.228 51.9615 49.228C51.9617 49.228 51.9618 49.228 51.9619 49.228C51.962 49.228 51.9621 49.228 51.9623 49.228C51.9624 49.228 51.9625 49.228 51.9626 49.228C51.9628 49.228 51.9629 49.228 51.963 49.228C51.9631 49.228 51.9633 49.228 51.9634 49.228C51.9635 49.228 51.9636 49.228 51.9637 49.228C51.9639 49.228 51.964 49.228 51.9641 49.228C51.9642 49.228 51.9644 49.228 51.9645 49.228C51.9646 49.228 51.9647 49.228 51.9648 49.228C51.965 49.228 51.9651 49.228 51.9652 49.228C51.9653 49.228 51.9654 49.228 51.9656 49.228C51.9657 49.228 51.9658 49.228 51.9659 49.228C51.9661 49.228 51.9662 49.228 51.9663 49.228C51.9664 49.228 51.9665 49.228 51.9667 49.228C51.9668 49.228 51.9669 49.228 51.967 49.228C51.9671 49.228 51.9673 49.228 51.9674 49.228C51.9675 49.228 51.9676 49.228 51.9678 49.228C51.9679 49.228 51.968 49.228 51.9681 49.228C51.9682 49.228 51.9684 49.228 51.9685 49.228C51.9686 49.228 51.9687 49.228 51.9688 49.228C51.969 49.228 51.9691 49.228 51.9692 49.228C51.9693 49.228 51.9694 49.228 51.9696 49.228C51.9697 49.228 51.9698 49.228 51.9699 49.228C51.97 49.228 51.9702 49.228 51.9703 49.228C51.9704 49.228 51.9705 49.228 51.9706 49.228C51.9708 49.228 51.9709 49.228 51.971 49.228C51.9711 49.228 51.9712 49.228 51.9714 49.228C51.9715 49.228 51.9716 49.228 51.9717 49.228C51.9718 49.228 51.972 49.228 51.9721 49.228C51.9722 49.228 51.9723 49.228 51.9724 49.228C51.9726 49.228 51.9727 49.228 51.9728 49.228C51.9729 49.228 51.973 49.228 51.9732 49.228C51.9733 49.228 51.9734 49.228 51.9735 49.228C51.9736 49.228 51.9738 49.228 51.9739 49.228C51.974 49.228 51.9741 49.228 51.9742 49.228C51.9743 49.228 51.9745 49.228 51.9746 49.228C51.9747 49.228 51.9748 49.228 51.9749 49.228C51.9751 49.228 51.9752 49.228 51.9753 49.228C51.9754 49.228 51.9755 49.228 51.9757 49.228C51.9758 49.228 51.9759 49.228 51.976 49.228C51.9761 49.228 51.9762 49.228 51.9764 49.228C51.9765 49.228 51.9766 49.228 51.9767 49.228C51.9768 49.228 51.977 49.228 51.9771 49.228C51.9772 49.228 51.9773 49.228 51.9774 49.228C51.9775 49.228 51.9777 49.228 51.9778 49.228C51.9779 49.228 51.978 49.228 51.9781 49.228C51.9783 49.228 51.9784 49.228 51.9785 49.228C51.9786 49.228 51.9787 49.228 51.9788 49.228C51.979 49.228 51.9791 49.228 51.9792 49.228C51.9793 49.228 51.9794 49.228 51.9795 49.228C51.9797 49.228 51.9798 49.228 51.9799 49.228C51.98 49.228 51.9801 49.228 51.9802 49.228C51.9804 49.228 51.9805 49.228 51.9806 49.228C51.9807 49.228 51.9808 49.228 51.9809 49.228C51.9811 49.228 51.9812 49.228 51.9813 49.228C51.9814 49.228 51.9815 49.228 51.9816 49.228C51.9818 49.228 51.9819 49.228 51.982 49.228C51.9821 49.228 51.9822 49.228 51.9823 49.228C51.9825 49.228 51.9826 49.228 51.9827 49.228C51.9828 49.228 51.9829 49.228 51.983 49.228C51.9832 49.228 51.9833 49.228 51.9834 49.228C51.9835 49.228 51.9836 49.228 51.9837 49.228C51.9839 49.228 51.984 49.228 51.9841 49.228C51.9842 49.228 51.9843 49.228 51.9844 49.228C51.9846 49.228 51.9847 49.228 51.9848 49.228C51.9849 49.228 51.985 49.228 51.9851 49.228C51.9852 49.228 51.9854 49.228 51.9855 49.228C51.9856 49.228 51.9857 49.228 51.9858 49.228C51.9859 49.228 51.9861 49.228 51.9862 49.228C51.9863 49.228 51.9864 49.228 51.9865 49.228C51.9866 49.228 51.9867 49.228 51.9869 49.228C51.987 49.228 51.9871 49.228 51.9872 49.228C51.9873 49.228 51.9874 49.228 51.9875 49.228C51.9877 49.228 51.9878 49.228 51.9879 49.228C51.988 49.228 51.9881 49.228 51.9882 49.228C51.9883 49.228 51.9885 49.228 51.9886 49.228C51.9887 49.228 51.9888 49.228 51.9889 49.228C51.989 49.228 51.9891 49.228 51.9893 49.228C51.9894 49.228 51.9895 49.228 51.9896 49.228C51.9897 49.228 51.9898 49.228 51.9899 49.228C51.9901 49.228 51.9902 49.228 51.9903 49.228C51.9904 49.228 51.9905 49.228 51.9906 49.228C51.9907 49.228 51.9909 49.228 51.991 49.228C51.9911 49.228 51.9912 49.228 51.9913 49.228C51.9914 49.228 51.9915 49.228 51.9917 49.228C51.9918 49.228 51.9919 49.228 51.992 49.228C51.9921 49.228 51.9922 49.228 51.9923 49.228C51.9924 49.228 51.9926 49.228 51.9927 49.228C51.9928 49.228 51.9929 49.228 51.993 49.228C51.9931 49.228 51.9932 49.228 51.9933 49.228C51.9935 49.228 51.9936 49.228 51.9937 49.228C51.9938 49.228 51.9939 49.228 51.994 49.228C51.9941 49.228 51.9942 49.228 51.9944 49.228C51.9945 49.228 51.9946 49.228 51.9947 49.228C51.9948 49.228 51.9949 49.228 51.995 49.228C51.9951 49.228 51.9953 49.228 51.9954 49.228C51.9955 49.228 51.9956 49.228 51.9957 49.228C51.9958 49.228 51.9959 49.228 51.996 49.228C51.9962 49.228 51.9963 49.228 51.9964 49.228C51.9965 49.228 51.9966 49.228 51.9967 49.228C51.9968 49.228 51.9969 49.228 51.997 49.228C51.9972 49.228 51.9973 49.228 51.9974 49.228C51.9975 49.228 51.9976 49.228 51.9977 49.228C51.9978 49.228 51.9979 49.228 51.9981 49.228C51.9982 49.228 51.9983 49.228 51.9984 49.228C51.9985 49.228 51.9986 49.228 51.9987 49.228C51.9988 49.228 51.9989 49.228 51.9991 49.228C51.9992 49.228 51.9993 49.228 51.9994 49.228C51.9995 49.228 51.9996 49.228 51.9997 49.228C51.9998 49.228 51.9999 49.228 52 49.228C52.0002 49.228 52.0003 49.228 52.0004 49.228C52.0005 49.228 52.0006 49.228 52.0007 49.228C52.0008 49.228 52.0009 49.228 52.001 49.228C52.0012 49.228 52.0013 49.228 52.0014 49.228C52.0015 49.228 52.0016 49.228 52.0017 49.228C52.0018 49.228 52.0019 49.228 52.002 49.228C52.0021 49.228 52.0023 49.228 52.0024 49.228C52.0025 49.228 52.0026 49.228 52.0027 49.228C52.0028 49.228 52.0029 49.228 52.003 49.228C52.0031 49.228 52.0032 49.228 52.0033 49.228C52.0035 49.228 52.0036 49.228 52.0037 49.228C52.0038 49.228 52.0039 49.228 52.004 49.228C52.0041 49.228 52.0042 49.228 52.0043 49.228C52.0044 49.228 52.0045 49.228 52.0047 49.228C52.0048 49.228 52.0049 49.228 52.005 49.228C52.0051 49.228 52.0052 49.228 52.0053 49.228C52.0054 49.228 52.0055 49.228 52.0056 49.228C52.0057 49.228 52.0059 49.228 52.006 49.228C52.0061 49.228 52.0062 49.228 52.0063 49.228C52.0064 49.228 52.0065 49.228 52.0066 49.228C52.0067 49.228 52.0068 49.228 52.0069 49.228C52.007 49.228 52.0072 49.228 52.0073 49.228C52.0074 49.228 52.0075 49.228 52.0076 49.228C52.0077 49.228 52.0078 49.228 52.0079 49.228C52.008 49.228 52.0081 49.228 52.0082 49.228C52.0083 49.228 52.0085 49.228 52.0086 49.228C52.0087 49.228 52.0088 49.228 52.0089 49.228C52.009 49.228 52.0091 49.228 52.0092 49.228C52.0093 49.228 52.0094 49.228 52.0095 49.228C52.0096 49.228 52.0097 49.228 52.0098 49.228C52.01 49.228 52.0101 49.228 52.0102 49.228C52.0103 49.228 52.0104 49.228 52.0105 49.228C52.0106 49.228 52.0107 49.228 52.0108 49.228C52.0109 49.228 52.011 49.228 52.0111 49.228C52.0112 49.228 52.0113 49.228 52.0115 49.228C52.0116 49.228 52.0117 49.228 52.0118 49.228C52.0119 49.228 52.012 49.228 52.0121 49.228C52.0122 49.228 52.0123 49.228 52.0124 49.228C52.0125 49.228 52.0126 49.228 52.0127 49.228C52.0128 49.228 52.0129 49.228 52.013 49.228C52.0132 49.228 52.0133 49.228 52.0134 49.228C52.0135 49.228 52.0136 49.228 52.0137 49.228C52.0138 49.228 52.0139 49.228 52.014 49.228C52.0141 49.228 52.0142 49.228 52.0143 49.228C52.0144 49.228 52.0145 49.228 52.0146 49.228C52.0147 49.228 52.0148 49.228 52.0149 49.228C52.0151 49.228 52.0152 49.228 52.0153 49.228C52.0154 49.228 52.0155 49.228 52.0156 49.228C52.0157 49.228 52.0158 49.228 52.0159 49.228C52.016 49.228 52.0161 49.228 52.0162 49.228C52.0163 49.228 52.0164 49.228 52.0165 49.228C52.0166 49.228 52.0167 49.228 52.0168 49.228C52.0169 49.228 52.0171 49.228 52.0172 49.228C52.0173 49.228 52.0174 49.228 52.0175 49.228C52.0176 49.228 52.0177 49.228 52.0178 49.228C52.0179 49.228 52.018 49.228 52.0181 49.228C52.0182 49.228 52.0183 49.228 52.0184 49.228C52.0185 49.228 52.0186 49.228 52.0187 49.228C52.0188 49.228 52.0189 49.228 52.019 49.228C52.0191 49.228 52.0192 49.228 52.0193 49.228C52.0194 49.228 52.0196 49.228 52.0197 49.228C52.0198 49.228 52.0199 49.228 52.02 49.228C52.0201 49.228 52.0202 49.228 52.0203 49.228C52.0204 49.228 52.0205 49.228 52.0206 49.228C52.0207 49.228 52.0208 49.228 52.0209 49.228C52.021 49.228 52.0211 49.228 52.0212 49.228C52.0213 49.228 52.0214 49.228 52.0215 49.228C52.0216 49.228 52.0217 49.228 52.0218 49.228C52.0219 49.228 52.022 49.228 52.0221 49.228C52.0222 49.228 52.0223 49.228 52.0224 49.228C52.0225 49.228 52.0226 49.228 52.0228 49.228C52.0229 49.228 52.023 49.228 52.0231 49.228C52.0232 49.228 52.0233 49.228 52.0234 49.228C52.0235 49.228 52.0236 49.228 52.0237 49.228C52.0238 49.228 52.0239 49.228 52.024 49.228C52.0241 49.228 52.0242 49.228 52.0243 49.228C52.0244 49.228 52.0245 49.228 52.0246 49.228C52.0247 49.228 52.0248 49.228 52.0249 49.228C52.025 49.228 52.0251 49.228 52.0252 49.228C52.0253 49.228 52.0254 49.228 52.0255 49.228C52.0256 49.228 52.0257 49.228 52.0258 49.228C52.0259 49.228 52.026 49.228 52.0261 49.228C52.0262 49.228 52.0263 49.228 52.0264 49.228C52.0265 49.228 52.0266 49.228 52.0267 49.228C52.0268 49.228 52.0269 49.228 52.027 49.228C52.0271 49.228 52.0272 49.228 52.0273 49.228C52.0274 49.228 52.0275 49.228 52.0276 49.228C52.0277 49.228 52.0278 49.228 52.0279 49.228C52.028 49.228 52.0281 49.228 52.0282 49.228C52.0283 49.228 52.0284 49.228 52.0285 49.228C52.0286 49.228 52.0287 49.228 52.0288 49.228C52.0289 49.228 52.029 49.228 52.0291 49.228C52.0292 49.228 52.0293 49.228 52.0294 49.228C52.0295 49.228 52.0296 49.228 52.0297 49.228C52.0298 49.228 52.0299 49.228 52.03 49.228C52.0301 49.228 52.0302 49.228 52.0303 49.228C52.0304 49.228 52.0305 49.228 52.0306 49.228C52.0307 49.228 52.0308 49.228 52.0309 49.228C52.031 49.228 52.0311 49.228 52.0312 49.228C52.0313 49.228 52.0314 49.228 52.0315 49.228C52.0316 49.228 52.0317 49.228 52.0318 49.228C52.0319 49.228 52.032 49.228 52.0321 49.228C52.0322 49.228 52.0323 49.228 52.0324 49.228C52.0325 49.228 52.0326 49.228 52.0327 49.228C52.0328 49.228 52.0329 49.228 52.033 49.228C52.0331 49.228 52.0332 49.228 52.0333 49.228C52.0334 49.228 52.0335 49.228 52.0336 49.228C52.0337 49.228 52.0338 49.228 52.0339 49.228C52.034 49.228 52.0341 49.228 52.0342 49.228C52.0343 49.228 52.0344 49.228 52.0345 49.228C52.0346 49.228 52.0347 49.228 52.0348 49.228C52.0349 49.228 52.035 49.228 52.0351 49.228C52.0352 49.228 52.0353 49.228 52.0354 49.228C52.0355 49.228 52.0356 49.228 52.0357 49.228C52.0358 49.228 52.0359 49.228 52.036 49.228C52.0361 49.228 52.0362 49.228 52.0363 49.228C52.0364 49.228 52.0365 49.228 52.0366 49.228C52.0367 49.228 52.0368 49.228 52.0368 49.228C52.0369 49.228 52.037 49.228 52.0371 49.228C52.0372 49.228 52.0373 49.228 52.0374 49.228C52.0375 49.228 52.0376 49.228 52.0377 49.228C52.0378 49.228 52.0379 49.228 52.038 49.228C52.0381 49.228 52.0382 49.228 52.0383 49.228C52.0384 49.228 52.0385 49.228 52.0386 49.228C52.0387 49.228 52.0388 49.228 52.0389 49.228C52.039 49.228 52.0391 49.228 52.0392 49.228C52.0393 49.228 52.0394 49.228 52.0395 49.228C52.0396 49.228 52.0397 49.228 52.0398 49.228C52.0398 49.228 52.0399 49.228 52.04 49.228C52.0401 49.228 52.0402 49.228 52.0403 49.228C52.0404 49.228 52.0405 49.228 52.0406 49.228C52.0407 49.228 52.0408 49.228 52.0409 49.228C52.041 49.228 52.0411 49.228 52.0412 49.228C52.0413 49.228 52.0414 49.228 52.0415 49.228C52.0416 49.228 52.0417 49.228 52.0418 49.228C52.0419 49.228 52.042 49.228 52.042 49.228C52.0421 49.228 52.0422 49.228 52.0423 49.228C52.0424 49.228 52.0425 49.228 52.0426 49.228C52.0427 49.228 52.0428 49.228 52.0429 49.228C52.043 49.228 52.0431 49.228 52.0432 49.228C52.0433 49.228 52.0434 49.228 52.0435 49.228C52.0436 49.228 52.0437 49.228 52.0438 49.228C52.0439 49.228 52.0439 49.228 52.044 49.228C52.0441 49.228 52.0442 49.228 52.0443 49.228C52.0444 49.228 52.0445 49.228 52.0446 49.228C52.0447 49.228 52.0448 49.228 52.0449 49.228C52.045 49.228 52.0451 49.228 52.0452 49.228C52.0453 49.228 52.0454 49.228 52.0455 49.228C52.0456 49.228 52.0456 49.228 52.0457 49.228C52.0458 49.228 52.0459 49.228 52.046 49.228C52.0461 49.228 52.0462 49.228 52.0463 49.228C52.0464 49.228 52.0465 49.228 52.0466 49.228C52.0467 49.228 52.0468 49.228 52.0469 49.228C52.047 49.228 52.0471 49.228 52.0471 49.228C52.0472 49.228 52.0473 49.228 52.0474 49.228C52.0475 49.228 52.0476 49.228 52.0477 49.228C52.0478 49.228 52.0479 49.228 52.048 49.228C52.0481 49.228 52.0482 49.228 52.0483 49.228C52.0484 49.228 52.0484 49.228 52.0485 49.228C52.0486 49.228 52.0487 49.228 52.0488 49.228C52.0489 49.228 52.049 49.228 52.0491 49.228C52.0492 49.228 52.0493 49.228 52.0494 49.228C52.0495 49.228 52.0496 49.228 52.0496 49.228C52.0497 49.228 52.0498 49.228 52.0499 49.228C52.05 49.228 52.0501 49.228 52.0502 49.228C52.0503 49.228 52.0504 49.228 52.0505 49.228C52.0506 49.228 52.0507 49.228 52.0508 49.228C52.0508 49.228 52.0509 49.228 52.051 49.228C52.0511 49.228 52.0512 49.228 52.0513 49.228C52.0514 49.228 52.0515 49.228 52.0516 49.228C52.0517 49.228 52.0518 49.228 52.0519 49.228C52.0519 49.228 52.052 49.228 52.0521 49.228C52.0522 49.228 52.0523 49.228 52.0524 49.228C52.0525 49.228 52.0526 49.228 52.0527 49.228C52.0528 49.228 52.0529 49.228 52.0529 49.228C52.053 49.228 52.0531 49.228 52.0532 49.228C52.0533 49.228 52.0534 49.228 52.0535 49.228C52.0536 49.228 52.0537 49.228 52.0538 49.228C52.0539 49.228 52.0539 49.228 52.054 49.228C52.0541 49.228 52.0542 49.228 52.0543 49.228C52.0544 49.228 52.0545 49.228 52.0546 49.228C52.0547 49.228 52.0548 49.228 52.0549 49.228C52.0549 49.228 52.055 49.228 52.0551 49.228C52.0552 49.228 52.0553 49.228 52.0554 49.228C52.0555 49.228 52.0556 49.228 52.0557 49.228C52.0558 49.228 52.0558 49.228 52.0559 49.228C52.056 49.228 52.0561 49.228 52.0562 49.228C52.0563 49.228 52.0564 49.228 52.0565 49.228C52.0566 49.228 52.0566 49.228 52.0567 49.228C52.0568 49.228 52.0569 49.228 52.057 49.228C52.0571 49.228 52.0572 49.228 52.0573 49.228C52.0574 49.228 52.0575 49.228 52.0575 49.228C52.0576 49.228 52.0577 49.228 52.0578 49.228C52.0579 49.228 52.058 49.228 52.0581 49.228C52.0582 49.228 52.0583 49.228 52.0583 49.228C52.0584 49.228 52.0585 49.228 52.0586 49.228C52.0587 49.228 52.0588 49.228 52.0589 49.228C52.059 49.228 52.059 49.228 52.0591 49.228C52.0592 49.228 52.0593 49.228 52.0594 49.228C52.0595 49.228 52.0596 49.228 52.0597 49.228C52.0598 49.228 52.0598 49.228 52.0599 49.228C52.06 49.228 52.0601 49.228 52.0602 49.228C52.0603 49.228 52.0604 49.228 52.0605 49.228C52.0605 49.228 52.0606 49.228 52.0607 49.228C52.0608 49.228 52.0609 49.228 52.061 49.228C52.0611 49.228 52.0612 49.228 52.0612 49.228C52.0613 49.228 52.0614 49.228 52.0615 49.228C52.0616 49.228 52.0617 49.228 52.0618 49.228C52.0619 49.228 52.0619 49.228 52.062 49.228C52.0621 49.228 52.0622 49.228 52.0623 49.228C52.0624 49.228 52.0625 49.228 52.0626 49.228C52.0626 49.228 52.0627 49.228 52.0628 49.228C52.0629 49.228 52.063 49.228 52.0631 49.228C52.0632 49.228 52.0633 49.228 52.0633 49.228C52.0634 49.228 52.0635 49.228 52.0636 49.228C52.0637 49.228 52.0638 49.228 52.0639 49.228C52.0639 49.228 52.064 49.228 52.0641 49.228C52.0642 49.228 52.0643 49.228 52.0644 49.228C52.0645 49.228 52.0645 49.228 52.0646 49.228C52.0647 49.228 52.0648 49.228 52.0649 49.228L52.0649 47.228C52.0648 47.228 52.0647 47.228 52.0646 47.228C52.0645 47.228 52.0645 47.228 52.0644 47.228C52.0643 47.228 52.0642 47.228 52.0641 47.228C52.064 47.228 52.0639 47.228 52.0639 47.228C52.0638 47.228 52.0637 47.228 52.0636 47.228C52.0635 47.228 52.0634 47.228 52.0633 47.228C52.0633 47.228 52.0632 47.228 52.0631 47.228C52.063 47.228 52.0629 47.228 52.0628 47.228C52.0627 47.228 52.0626 47.228 52.0626 47.228C52.0625 47.228 52.0624 47.228 52.0623 47.228C52.0622 47.228 52.0621 47.228 52.062 47.228C52.0619 47.228 52.0619 47.228 52.0618 47.228C52.0617 47.228 52.0616 47.228 52.0615 47.228C52.0614 47.228 52.0613 47.228 52.0612 47.228C52.0612 47.228 52.0611 47.228 52.061 47.228C52.0609 47.228 52.0608 47.228 52.0607 47.228C52.0606 47.228 52.0605 47.228 52.0605 47.228C52.0604 47.228 52.0603 47.228 52.0602 47.228C52.0601 47.228 52.06 47.228 52.0599 47.228C52.0598 47.228 52.0598 47.228 52.0597 47.228C52.0596 47.228 52.0595 47.228 52.0594 47.228C52.0593 47.228 52.0592 47.228 52.0591 47.228C52.059 47.228 52.059 47.228 52.0589 47.228C52.0588 47.228 52.0587 47.228 52.0586 47.228C52.0585 47.228 52.0584 47.228 52.0583 47.228C52.0583 47.228 52.0582 47.228 52.0581 47.228C52.058 47.228 52.0579 47.228 52.0578 47.228C52.0577 47.228 52.0576 47.228 52.0575 47.228C52.0575 47.228 52.0574 47.228 52.0573 47.228C52.0572 47.228 52.0571 47.228 52.057 47.228C52.0569 47.228 52.0568 47.228 52.0567 47.228C52.0566 47.228 52.0566 47.228 52.0565 47.228C52.0564 47.228 52.0563 47.228 52.0562 47.228C52.0561 47.228 52.056 47.228 52.0559 47.228C52.0558 47.228 52.0558 47.228 52.0557 47.228C52.0556 47.228 52.0555 47.228 52.0554 47.228C52.0553 47.228 52.0552 47.228 52.0551 47.228C52.055 47.228 52.0549 47.228 52.0549 47.228C52.0548 47.228 52.0547 47.228 52.0546 47.228C52.0545 47.228 52.0544 47.228 52.0543 47.228C52.0542 47.228 52.0541 47.228 52.054 47.228C52.0539 47.228 52.0539 47.228 52.0538 47.228C52.0537 47.228 52.0536 47.228 52.0535 47.228C52.0534 47.228 52.0533 47.228 52.0532 47.228C52.0531 47.228 52.053 47.228 52.0529 47.228C52.0529 47.228 52.0528 47.228 52.0527 47.228C52.0526 47.228 52.0525 47.228 52.0524 47.228C52.0523 47.228 52.0522 47.228 52.0521 47.228C52.052 47.228 52.0519 47.228 52.0519 47.228C52.0518 47.228 52.0517 47.228 52.0516 47.228C52.0515 47.228 52.0514 47.228 52.0513 47.228C52.0512 47.228 52.0511 47.228 52.051 47.228C52.0509 47.228 52.0508 47.228 52.0508 47.228C52.0507 47.228 52.0506 47.228 52.0505 47.228C52.0504 47.228 52.0503 47.228 52.0502 47.228C52.0501 47.228 52.05 47.228 52.0499 47.228C52.0498 47.228 52.0497 47.228 52.0496 47.228C52.0496 47.228 52.0495 47.228 52.0494 47.228C52.0493 47.228 52.0492 47.228 52.0491 47.228C52.049 47.228 52.0489 47.228 52.0488 47.228C52.0487 47.228 52.0486 47.228 52.0485 47.228C52.0484 47.228 52.0484 47.228 52.0483 47.228C52.0482 47.228 52.0481 47.228 52.048 47.228C52.0479 47.228 52.0478 47.228 52.0477 47.228C52.0476 47.228 52.0475 47.228 52.0474 47.228C52.0473 47.228 52.0472 47.228 52.0471 47.228C52.0471 47.228 52.047 47.228 52.0469 47.228C52.0468 47.228 52.0467 47.228 52.0466 47.228C52.0465 47.228 52.0464 47.228 52.0463 47.228C52.0462 47.228 52.0461 47.228 52.046 47.228C52.0459 47.228 52.0458 47.228 52.0457 47.228C52.0456 47.228 52.0456 47.228 52.0455 47.228C52.0454 47.228 52.0453 47.228 52.0452 47.228C52.0451 47.228 52.045 47.228 52.0449 47.228C52.0448 47.228 52.0447 47.228 52.0446 47.228C52.0445 47.228 52.0444 47.228 52.0443 47.228C52.0442 47.228 52.0441 47.228 52.044 47.228C52.0439 47.228 52.0439 47.228 52.0438 47.228C52.0437 47.228 52.0436 47.228 52.0435 47.228C52.0434 47.228 52.0433 47.228 52.0432 47.228C52.0431 47.228 52.043 47.228 52.0429 47.228C52.0428 47.228 52.0427 47.228 52.0426 47.228C52.0425 47.228 52.0424 47.228 52.0423 47.228C52.0422 47.228 52.0421 47.228 52.042 47.228C52.042 47.228 52.0419 47.228 52.0418 47.228C52.0417 47.228 52.0416 47.228 52.0415 47.228C52.0414 47.228 52.0413 47.228 52.0412 47.228C52.0411 47.228 52.041 47.228 52.0409 47.228C52.0408 47.228 52.0407 47.228 52.0406 47.228C52.0405 47.228 52.0404 47.228 52.0403 47.228C52.0402 47.228 52.0401 47.228 52.04 47.228C52.0399 47.228 52.0398 47.228 52.0398 47.228C52.0397 47.228 52.0396 47.228 52.0395 47.228C52.0394 47.228 52.0393 47.228 52.0392 47.228C52.0391 47.228 52.039 47.228 52.0389 47.228C52.0388 47.228 52.0387 47.228 52.0386 47.228C52.0385 47.228 52.0384 47.228 52.0383 47.228C52.0382 47.228 52.0381 47.228 52.038 47.228C52.0379 47.228 52.0378 47.228 52.0377 47.228C52.0376 47.228 52.0375 47.228 52.0374 47.228C52.0373 47.228 52.0372 47.228 52.0371 47.228C52.037 47.228 52.0369 47.228 52.0368 47.228C52.0368 47.228 52.0367 47.228 52.0366 47.228C52.0365 47.228 52.0364 47.228 52.0363 47.228C52.0362 47.228 52.0361 47.228 52.036 47.228C52.0359 47.228 52.0358 47.228 52.0357 47.228C52.0356 47.228 52.0355 47.228 52.0354 47.228C52.0353 47.228 52.0352 47.228 52.0351 47.228C52.035 47.228 52.0349 47.228 52.0348 47.228C52.0347 47.228 52.0346 47.228 52.0345 47.228C52.0344 47.228 52.0343 47.228 52.0342 47.228C52.0341 47.228 52.034 47.228 52.0339 47.228C52.0338 47.228 52.0337 47.228 52.0336 47.228C52.0335 47.228 52.0334 47.228 52.0333 47.228C52.0332 47.228 52.0331 47.228 52.033 47.228C52.0329 47.228 52.0328 47.228 52.0327 47.228C52.0326 47.228 52.0325 47.228 52.0324 47.228C52.0323 47.228 52.0322 47.228 52.0321 47.228C52.032 47.228 52.0319 47.228 52.0318 47.228C52.0317 47.228 52.0316 47.228 52.0315 47.228C52.0314 47.228 52.0313 47.228 52.0312 47.228C52.0311 47.228 52.031 47.228 52.0309 47.228C52.0308 47.228 52.0307 47.228 52.0306 47.228C52.0305 47.228 52.0304 47.228 52.0303 47.228C52.0302 47.228 52.0301 47.228 52.03 47.228C52.0299 47.228 52.0298 47.228 52.0297 47.228C52.0296 47.228 52.0295 47.228 52.0294 47.228C52.0293 47.228 52.0292 47.228 52.0291 47.228C52.029 47.228 52.0289 47.228 52.0288 47.228C52.0287 47.228 52.0286 47.228 52.0285 47.228C52.0284 47.228 52.0283 47.228 52.0282 47.228C52.0281 47.228 52.028 47.228 52.0279 47.228C52.0278 47.228 52.0277 47.228 52.0276 47.228C52.0275 47.228 52.0274 47.228 52.0273 47.228C52.0272 47.228 52.0271 47.228 52.027 47.228C52.0269 47.228 52.0268 47.228 52.0267 47.228C52.0266 47.228 52.0265 47.228 52.0264 47.228C52.0263 47.228 52.0262 47.228 52.0261 47.228C52.026 47.228 52.0259 47.228 52.0258 47.228C52.0257 47.228 52.0256 47.228 52.0255 47.228C52.0254 47.228 52.0253 47.228 52.0252 47.228C52.0251 47.228 52.025 47.228 52.0249 47.228C52.0248 47.228 52.0247 47.228 52.0246 47.228C52.0245 47.228 52.0244 47.228 52.0243 47.228C52.0242 47.228 52.0241 47.228 52.024 47.228C52.0239 47.228 52.0238 47.228 52.0237 47.228C52.0236 47.228 52.0235 47.228 52.0234 47.228C52.0233 47.228 52.0232 47.228 52.0231 47.228C52.023 47.228 52.0229 47.228 52.0228 47.228C52.0226 47.228 52.0225 47.228 52.0224 47.228C52.0223 47.228 52.0222 47.228 52.0221 47.228C52.022 47.228 52.0219 47.228 52.0218 47.228C52.0217 47.228 52.0216 47.228 52.0215 47.228C52.0214 47.228 52.0213 47.228 52.0212 47.228C52.0211 47.228 52.021 47.228 52.0209 47.228C52.0208 47.228 52.0207 47.228 52.0206 47.228C52.0205 47.228 52.0204 47.228 52.0203 47.228C52.0202 47.228 52.0201 47.228 52.02 47.228C52.0199 47.228 52.0198 47.228 52.0197 47.228C52.0196 47.228 52.0194 47.228 52.0193 47.228C52.0192 47.228 52.0191 47.228 52.019 47.228C52.0189 47.228 52.0188 47.228 52.0187 47.228C52.0186 47.228 52.0185 47.228 52.0184 47.228C52.0183 47.228 52.0182 47.228 52.0181 47.228C52.018 47.228 52.0179 47.228 52.0178 47.228C52.0177 47.228 52.0176 47.228 52.0175 47.228C52.0174 47.228 52.0173 47.228 52.0172 47.228C52.0171 47.228 52.0169 47.228 52.0168 47.228C52.0167 47.228 52.0166 47.228 52.0165 47.228C52.0164 47.228 52.0163 47.228 52.0162 47.228C52.0161 47.228 52.016 47.228 52.0159 47.228C52.0158 47.228 52.0157 47.228 52.0156 47.228C52.0155 47.228 52.0154 47.228 52.0153 47.228C52.0152 47.228 52.0151 47.228 52.0149 47.228C52.0148 47.228 52.0147 47.228 52.0146 47.228C52.0145 47.228 52.0144 47.228 52.0143 47.228C52.0142 47.228 52.0141 47.228 52.014 47.228C52.0139 47.228 52.0138 47.228 52.0137 47.228C52.0136 47.228 52.0135 47.228 52.0134 47.228C52.0133 47.228 52.0132 47.228 52.013 47.228C52.0129 47.228 52.0128 47.228 52.0127 47.228C52.0126 47.228 52.0125 47.228 52.0124 47.228C52.0123 47.228 52.0122 47.228 52.0121 47.228C52.012 47.228 52.0119 47.228 52.0118 47.228C52.0117 47.228 52.0116 47.228 52.0115 47.228C52.0113 47.228 52.0112 47.228 52.0111 47.228C52.011 47.228 52.0109 47.228 52.0108 47.228C52.0107 47.228 52.0106 47.228 52.0105 47.228C52.0104 47.228 52.0103 47.228 52.0102 47.228C52.0101 47.228 52.01 47.228 52.0098 47.228C52.0097 47.228 52.0096 47.228 52.0095 47.228C52.0094 47.228 52.0093 47.228 52.0092 47.228C52.0091 47.228 52.009 47.228 52.0089 47.228C52.0088 47.228 52.0087 47.228 52.0086 47.228C52.0085 47.228 52.0083 47.228 52.0082 47.228C52.0081 47.228 52.008 47.228 52.0079 47.228C52.0078 47.228 52.0077 47.228 52.0076 47.228C52.0075 47.228 52.0074 47.228 52.0073 47.228C52.0072 47.228 52.007 47.228 52.0069 47.228C52.0068 47.228 52.0067 47.228 52.0066 47.228C52.0065 47.228 52.0064 47.228 52.0063 47.228C52.0062 47.228 52.0061 47.228 52.006 47.228C52.0059 47.228 52.0057 47.228 52.0056 47.228C52.0055 47.228 52.0054 47.228 52.0053 47.228C52.0052 47.228 52.0051 47.228 52.005 47.228C52.0049 47.228 52.0048 47.228 52.0047 47.228C52.0045 47.228 52.0044 47.228 52.0043 47.228C52.0042 47.228 52.0041 47.228 52.004 47.228C52.0039 47.228 52.0038 47.228 52.0037 47.228C52.0036 47.228 52.0035 47.228 52.0033 47.228C52.0032 47.228 52.0031 47.228 52.003 47.228C52.0029 47.228 52.0028 47.228 52.0027 47.228C52.0026 47.228 52.0025 47.228 52.0024 47.228C52.0023 47.228 52.0021 47.228 52.002 47.228C52.0019 47.228 52.0018 47.228 52.0017 47.228C52.0016 47.228 52.0015 47.228 52.0014 47.228C52.0013 47.228 52.0012 47.228 52.001 47.228C52.0009 47.228 52.0008 47.228 52.0007 47.228C52.0006 47.228 52.0005 47.228 52.0004 47.228C52.0003 47.228 52.0002 47.228 52 47.228C51.9999 47.228 51.9998 47.228 51.9997 47.228C51.9996 47.228 51.9995 47.228 51.9994 47.228C51.9993 47.228 51.9992 47.228 51.9991 47.228C51.9989 47.228 51.9988 47.228 51.9987 47.228C51.9986 47.228 51.9985 47.228 51.9984 47.228C51.9983 47.228 51.9982 47.228 51.9981 47.228C51.9979 47.228 51.9978 47.228 51.9977 47.228C51.9976 47.228 51.9975 47.228 51.9974 47.228C51.9973 47.228 51.9972 47.228 51.997 47.228C51.9969 47.228 51.9968 47.228 51.9967 47.228C51.9966 47.228 51.9965 47.228 51.9964 47.228C51.9963 47.228 51.9962 47.228 51.996 47.228C51.9959 47.228 51.9958 47.228 51.9957 47.228C51.9956 47.228 51.9955 47.228 51.9954 47.228C51.9953 47.228 51.9951 47.228 51.995 47.228C51.9949 47.228 51.9948 47.228 51.9947 47.228C51.9946 47.228 51.9945 47.228 51.9944 47.228C51.9942 47.228 51.9941 47.228 51.994 47.228C51.9939 47.228 51.9938 47.228 51.9937 47.228C51.9936 47.228 51.9935 47.228 51.9933 47.228C51.9932 47.228 51.9931 47.228 51.993 47.228C51.9929 47.228 51.9928 47.228 51.9927 47.228C51.9926 47.228 51.9924 47.228 51.9923 47.228C51.9922 47.228 51.9921 47.228 51.992 47.228C51.9919 47.228 51.9918 47.228 51.9917 47.228C51.9915 47.228 51.9914 47.228 51.9913 47.228C51.9912 47.228 51.9911 47.228 51.991 47.228C51.9909 47.228 51.9907 47.228 51.9906 47.228C51.9905 47.228 51.9904 47.228 51.9903 47.228C51.9902 47.228 51.9901 47.228 51.9899 47.228C51.9898 47.228 51.9897 47.228 51.9896 47.228C51.9895 47.228 51.9894 47.228 51.9893 47.228C51.9891 47.228 51.989 47.228 51.9889 47.228C51.9888 47.228 51.9887 47.228 51.9886 47.228C51.9885 47.228 51.9883 47.228 51.9882 47.228C51.9881 47.228 51.988 47.228 51.9879 47.228C51.9878 47.228 51.9877 47.228 51.9875 47.228C51.9874 47.228 51.9873 47.228 51.9872 47.228C51.9871 47.228 51.987 47.228 51.9869 47.228C51.9867 47.228 51.9866 47.228 51.9865 47.228C51.9864 47.228 51.9863 47.228 51.9862 47.228C51.9861 47.228 51.9859 47.228 51.9858 47.228C51.9857 47.228 51.9856 47.228 51.9855 47.228C51.9854 47.228 51.9852 47.228 51.9851 47.228C51.985 47.228 51.9849 47.228 51.9848 47.228C51.9847 47.228 51.9846 47.228 51.9844 47.228C51.9843 47.228 51.9842 47.228 51.9841 47.228C51.984 47.228 51.9839 47.228 51.9837 47.228C51.9836 47.228 51.9835 47.228 51.9834 47.228C51.9833 47.228 51.9832 47.228 51.983 47.228C51.9829 47.228 51.9828 47.228 51.9827 47.228C51.9826 47.228 51.9825 47.228 51.9823 47.228C51.9822 47.228 51.9821 47.228 51.982 47.228C51.9819 47.228 51.9818 47.228 51.9816 47.228C51.9815 47.228 51.9814 47.228 51.9813 47.228C51.9812 47.228 51.9811 47.228 51.9809 47.228C51.9808 47.228 51.9807 47.228 51.9806 47.228C51.9805 47.228 51.9804 47.228 51.9802 47.228C51.9801 47.228 51.98 47.228 51.9799 47.228C51.9798 47.228 51.9797 47.228 51.9795 47.228C51.9794 47.228 51.9793 47.228 51.9792 47.228C51.9791 47.228 51.979 47.228 51.9788 47.228C51.9787 47.228 51.9786 47.228 51.9785 47.228C51.9784 47.228 51.9783 47.228 51.9781 47.228C51.978 47.228 51.9779 47.228 51.9778 47.228C51.9777 47.228 51.9775 47.228 51.9774 47.228C51.9773 47.228 51.9772 47.228 51.9771 47.228C51.977 47.228 51.9768 47.228 51.9767 47.228C51.9766 47.228 51.9765 47.228 51.9764 47.228C51.9762 47.228 51.9761 47.228 51.976 47.228C51.9759 47.228 51.9758 47.228 51.9757 47.228C51.9755 47.228 51.9754 47.228 51.9753 47.228C51.9752 47.228 51.9751 47.228 51.9749 47.228C51.9748 47.228 51.9747 47.228 51.9746 47.228C51.9745 47.228 51.9743 47.228 51.9742 47.228C51.9741 47.228 51.974 47.228 51.9739 47.228C51.9738 47.228 51.9736 47.228 51.9735 47.228C51.9734 47.228 51.9733 47.228 51.9732 47.228C51.973 47.228 51.9729 47.228 51.9728 47.228C51.9727 47.228 51.9726 47.228 51.9724 47.228C51.9723 47.228 51.9722 47.228 51.9721 47.228C51.972 47.228 51.9718 47.228 51.9717 47.228C51.9716 47.228 51.9715 47.228 51.9714 47.228C51.9712 47.228 51.9711 47.228 51.971 47.228C51.9709 47.228 51.9708 47.228 51.9706 47.228C51.9705 47.228 51.9704 47.228 51.9703 47.228C51.9702 47.228 51.97 47.228 51.9699 47.228C51.9698 47.228 51.9697 47.228 51.9696 47.228C51.9694 47.228 51.9693 47.228 51.9692 47.228C51.9691 47.228 51.969 47.228 51.9688 47.228C51.9687 47.228 51.9686 47.228 51.9685 47.228C51.9684 47.228 51.9682 47.228 51.9681 47.228C51.968 47.228 51.9679 47.228 51.9678 47.228C51.9676 47.228 51.9675 47.228 51.9674 47.228C51.9673 47.228 51.9671 47.228 51.967 47.228C51.9669 47.228 51.9668 47.228 51.9667 47.228C51.9665 47.228 51.9664 47.228 51.9663 47.228C51.9662 47.228 51.9661 47.228 51.9659 47.228C51.9658 47.228 51.9657 47.228 51.9656 47.228C51.9654 47.228 51.9653 47.228 51.9652 47.228C51.9651 47.228 51.965 47.228 51.9648 47.228C51.9647 47.228 51.9646 47.228 51.9645 47.228C51.9644 47.228 51.9642 47.228 51.9641 47.228C51.964 47.228 51.9639 47.228 51.9637 47.228C51.9636 47.228 51.9635 47.228 51.9634 47.228C51.9633 47.228 51.9631 47.228 51.963 47.228C51.9629 47.228 51.9628 47.228 51.9626 47.228C51.9625 47.228 51.9624 47.228 51.9623 47.228C51.9621 47.228 51.962 47.228 51.9619 47.228C51.9618 47.228 51.9617 47.228 51.9615 47.228C51.9614 47.228 51.9613 47.228 51.9612 47.228C51.961 47.228 51.9609 47.228 51.9608 47.228C51.9607 47.228 51.9605 47.228 51.9604 47.228C51.9603 47.228 51.9602 47.228 51.9601 47.228C51.9599 47.228 51.9598 47.228 51.9597 47.228C51.9596 47.228 51.9594 47.228 51.9593 47.228C51.9592 47.228 51.9591 47.228 51.9589 47.228C51.9588 47.228 51.9587 47.228 51.9586 47.228C51.9585 47.228 51.9583 47.228 51.9582 47.228C51.9581 47.228 51.958 47.228 51.9578 47.228C51.9577 47.228 51.9576 47.228 51.9575 47.228C51.9573 47.228 51.9572 47.228 51.9571 47.228C51.957 47.228 51.9568 47.228 51.9567 47.228C51.9566 47.228 51.9565 47.228 51.9563 47.228C51.9562 47.228 51.9561 47.228 51.956 47.228C51.9558 47.228 51.9557 47.228 51.9556 47.228C51.9555 47.228 51.9553 47.228 51.9552 47.228C51.9551 47.228 51.955 47.228 51.9548 47.228C51.9547 47.228 51.9546 47.228 51.9545 47.228C51.9543 47.228 51.9542 47.228 51.9541 47.228C51.954 47.228 51.9538 47.228 51.9537 47.228C51.9536 47.228 51.9535 47.228 51.9533 47.228C51.9532 47.228 51.9531 47.228 51.953 47.228C51.9528 47.228 51.9527 47.228 51.9526 47.228C51.9525 47.228 51.9523 47.228 51.9522 47.228C51.9521 47.228 51.952 47.228 51.9518 47.228C51.9517 47.228 51.9516 47.228 51.9515 47.228C51.9513 47.228 51.9512 47.228 51.9511 47.228C51.951 47.228 51.9508 47.228 51.9507 47.228C51.9506 47.228 51.9505 47.228 51.9503 47.228C51.9502 47.228 51.9501 47.228 51.9499 47.228C51.9498 47.228 51.9497 47.228 51.9496 47.228C51.9494 47.228 51.9493 47.228 51.9492 47.228C51.9491 47.228 51.9489 47.228 51.9488 47.228C51.9487 47.228 51.9486 47.228 51.9484 47.228C51.9483 47.228 51.9482 47.228 51.948 47.228C51.9479 47.228 51.9478 47.228 51.9477 47.228C51.9475 47.228 51.9474 47.228 51.9473 47.228C51.9472 47.228 51.947 47.228 51.9469 47.228C51.9468 47.228 51.9466 47.228 51.9465 47.228C51.9464 47.228 51.9463 47.228 51.9461 47.228C51.946 47.228 51.9459 47.228 51.9458 47.228C51.9456 47.228 51.9455 47.228 51.9454 47.228C51.9452 47.228 51.9451 47.228 51.945 47.228C51.9449 47.228 51.9447 47.228 51.9446 47.228C51.9445 47.228 51.9444 47.228 51.9442 47.228C51.9441 47.228 51.944 47.228 51.9438 47.228C51.9437 47.228 51.9436 47.228 51.9435 47.228C51.9433 47.228 51.9432 47.228 51.9431 47.228C51.9429 47.228 51.9428 47.228 51.9427 47.228C51.9426 47.228 51.9424 47.228 51.9423 47.228C51.9422 47.228 51.942 47.228 51.9419 47.228C51.9418 47.228 51.9417 47.228 51.9415 47.228C51.9414 47.228 51.9413 47.228 51.9411 47.228C51.941 47.228 51.9409 47.228 51.9408 47.228C51.9406 47.228 51.9405 47.228 51.9404 47.228C51.9402 47.228 51.9401 47.228 51.94 47.228C51.9398 47.228 51.9397 47.228 51.9396 47.228C51.9395 47.228 51.9393 47.228 51.9392 47.228C51.9391 47.228 51.9389 47.228 51.9388 47.228C51.9387 47.228 51.9386 47.228 51.9384 47.228C51.9383 47.228 51.9382 47.228 51.938 47.228C51.9379 47.228 51.9378 47.228 51.9376 47.228C51.9375 47.228 51.9374 47.228 51.9373 47.228C51.9371 47.228 51.937 47.228 51.9369 47.228C51.9367 47.228 51.9366 47.228 51.9365 47.228C51.9363 47.228 51.9362 47.228 51.9361 47.228C51.936 47.228 51.9358 47.228 51.9357 47.228C51.9356 47.228 51.9354 47.228 51.9353 47.228C51.9352 47.228 51.935 47.228 51.9349 47.228C51.9348 47.228 51.9346 47.228 51.9345 47.228C51.9344 47.228 51.9343 47.228 51.9341 47.228C51.934 47.228 51.9339 47.228 51.9337 47.228C51.9336 47.228 51.9335 47.228 51.9333 47.228C51.9332 47.228 51.9331 47.228 51.9329 47.228C51.9328 47.228 51.9327 47.228 51.9326 47.228C51.9324 47.228 51.9323 47.228 51.9322 47.228C51.932 47.228 51.9319 47.228 51.9318 47.228C51.9316 47.228 51.9315 47.228 51.9314 47.228C51.9312 47.228 51.9311 47.228 51.931 47.228C51.9308 47.228 51.9307 47.228 51.9306 47.228C51.9304 47.228 51.9303 47.228 51.9302 47.228C51.93 47.228 51.9299 47.228 51.9298 47.228C51.9297 47.228 51.9295 47.228 51.9294 47.228C51.9293 47.228 51.9291 47.228 51.929 47.228C51.9289 47.228 51.9287 47.228 51.9286 47.228C51.9285 47.228 51.9283 47.228 51.9282 47.228C51.9281 47.228 51.9279 47.228 51.9278 47.228C51.9277 47.228 51.9275 47.228 51.9274 47.228C51.9273 47.228 51.9271 47.228 51.927 47.228C51.9269 47.228 51.9267 47.228 51.9266 47.228C51.9265 47.228 51.9263 47.228 51.9262 47.228C51.9261 47.228 51.9259 47.228 51.9258 47.228C51.9257 47.228 51.9255 47.228 51.9254 47.228C51.9253 47.228 51.9251 47.228 51.925 47.228C51.9249 47.228 51.9247 47.228 51.9246 47.228C51.9245 47.228 51.9243 47.228 51.9242 47.228C51.9241 47.228 51.9239 47.228 51.9238 47.228C51.9237 47.228 51.9235 47.228 51.9234 47.228C51.9233 47.228 51.9231 47.228 51.923 47.228C51.9229 47.228 51.9227 47.228 51.9226 47.228C51.9225 47.228 51.9223 47.228 51.9222 47.228C51.9221 47.228 51.9219 47.228 51.9218 47.228C51.9217 47.228 51.9215 47.228 51.9214 47.228C51.9213 47.228 51.9211 47.228 51.921 47.228C51.9208 47.228 51.9207 47.228 51.9206 47.228C51.9204 47.228 51.9203 47.228 51.9202 47.228C51.92 47.228 51.9199 47.228 51.9198 47.228C51.9196 47.228 51.9195 47.228 51.9194 47.228C51.9192 47.228 51.9191 47.228 51.919 47.228C51.9188 47.228 51.9187 47.228 51.9186 47.228C51.9184 47.228 51.9183 47.228 51.9181 47.228C51.918 47.228 51.9179 47.228 51.9177 47.228C51.9176 47.228 51.9175 47.228 51.9173 47.228C51.9172 47.228 51.9171 47.228 51.9169 47.228C51.9168 47.228 51.9167 47.228 51.9165 47.228C51.9164 47.228 51.9162 47.228 51.9161 47.228C51.916 47.228 51.9158 47.228 51.9157 47.228C51.9156 47.228 51.9154 47.228 51.9153 47.228C51.9152 47.228 51.915 47.228 51.9149 47.228C51.9147 47.228 51.9146 47.228 51.9145 47.228C51.9143 47.228 51.9142 47.228 51.9141 47.228C51.9139 47.228 51.9138 47.228 51.9137 47.228C51.9135 47.228 51.9134 47.228 51.9132 47.228C51.9131 47.228 51.913 47.228 51.9128 47.228C51.9127 47.228 51.9126 47.228 51.9124 47.228C51.9123 47.228 51.9122 47.228 51.912 47.228C51.9119 47.228 51.9117 47.228 51.9116 47.228C51.9115 47.228 51.9113 47.228 51.9112 47.228C51.9111 47.228 51.9109 47.228 51.9108 47.228C51.9106 47.228 51.9105 47.228 51.9104 47.228C51.9102 47.228 51.9101 47.228 51.91 47.228C51.9098 47.228 51.9097 47.228 51.9095 47.228C51.9094 47.228 51.9093 47.228 51.9091 47.228C51.909 47.228 51.9089 47.228 51.9087 47.228C51.9086 47.228 51.9084 47.228 51.9083 47.228C51.9082 47.228 51.908 47.228 51.9079 47.228C51.9077 47.228 51.9076 47.228 51.9075 47.228C51.9073 47.228 51.9072 47.228 51.9071 47.228C51.9069 47.228 51.9068 47.228 51.9066 47.228C51.9065 47.228 51.9064 47.228 51.9062 47.228C51.9061 47.228 51.9059 47.228 51.9058 47.228C51.9057 47.228 51.9055 47.228 51.9054 47.228C51.9053 47.228 51.9051 47.228 51.905 47.228C51.9048 47.228 51.9047 47.228 51.9046 47.228C51.9044 47.228 51.9043 47.228 51.9041 47.228C51.904 47.228 51.9039 47.228 51.9037 47.228C51.9036 47.228 51.9034 47.228 51.9033 47.228C51.9032 47.228 51.903 47.228 51.9029 47.228C51.9027 47.228 51.9026 47.228 51.9025 47.228C51.9023 47.228 51.9022 47.228 51.902 47.228C51.9019 47.228 51.9018 47.228 51.9016 47.228C51.9015 47.228 51.9014 47.228 51.9012 47.228C51.9011 47.228 51.9009 47.228 51.9008 47.228C51.9007 47.228 51.9005 47.228 51.9004 47.228C51.9002 47.228 51.9001 47.228 51.8999 47.228C51.8998 47.228 51.8997 47.228 51.8995 47.228C51.8994 47.228 51.8992 47.228 51.8991 47.228C51.899 47.228 51.8988 47.228 51.8987 47.228C51.8985 47.228 51.8984 47.228 51.8983 47.228C51.8981 47.228 51.898 47.228 51.8978 47.228C51.8977 47.228 51.8976 47.228 51.8974 47.228C51.8973 47.228 51.8971 47.228 51.897 47.228C51.8969 47.228 51.8967 47.228 51.8966 47.228C51.8964 47.228 51.8963 47.228 51.8961 47.228C51.896 47.228 51.8959 47.228 51.8957 47.228C51.8956 47.228 51.8954 47.228 51.8953 47.228C51.8952 47.228 51.895 47.228 51.8949 47.228C51.8947 47.228 51.8946 47.228 51.8944 47.228C51.8943 47.228 51.8942 47.228 51.894 47.228C51.8939 47.228 51.8937 47.228 51.8936 47.228C51.8935 47.228 51.8933 47.228 51.8932 47.228C51.893 47.228 51.8929 47.228 51.8927 47.228C51.8926 47.228 51.8925 47.228 51.8923 47.228C51.8922 47.228 51.892 47.228 51.8919 47.228C51.8917 47.228 51.8916 47.228 51.8915 47.228C51.8913 47.228 51.8912 47.228 51.891 47.228C51.8909 47.228 51.8907 47.228 51.8906 47.228C51.8905 47.228 51.8903 47.228 51.8902 47.228C51.89 47.228 51.8899 47.228 51.8897 47.228C51.8896 47.228 51.8895 47.228 51.8893 47.228C51.8892 47.228 51.889 47.228 51.8889 47.228L51.8889 49.228ZM52.3074 49.1981C52.3313 49.1922 52.3765 49.1825 52.4493 49.1704L52.1205 47.1976C52.0173 47.2148 51.9158 47.2345 51.8224 47.2579L52.3074 49.1981ZM51.2973 48.3408L51.7373 51.1128L53.7125 50.7992L53.2725 48.0272L51.2973 48.3408ZM52.3058 50.048C52.2158 50.0896 52.0529 50.1435 51.7898 50.1937L52.164 52.1583C52.5169 52.0911 52.8526 51.9984 53.1439 51.864L52.3058 50.048ZM51.7898 50.1937C51.5608 50.2373 51.26 50.264 50.8769 50.264L50.8769 52.264C51.3444 52.264 51.777 52.2321 52.164 52.1583L51.7898 50.1937ZM58.7539 51L57.7539 51L57.7539 52L58.7539 52L58.7539 51ZM58.7539 36.7L58.7539 35.7L57.7539 35.7L57.7539 36.7L58.7539 36.7ZM62.5379 36.7L63.5379 36.7L63.5379 35.7L62.5379 35.7L62.5379 36.7ZM62.5379 47.832L61.5379 47.832L61.5379 48.832L62.5379 48.832L62.5379 47.832ZM67.9499 47.832L68.9499 47.832L68.9499 46.832L67.9499 46.832L67.9499 47.832ZM67.9499 51L67.9499 52L68.9499 52L68.9499 51L67.9499 51ZM59.7539 51L59.7539 36.7L57.7539 36.7L57.7539 51L59.7539 51ZM58.7539 37.7L62.5379 37.7L62.5379 35.7L58.7539 35.7L58.7539 37.7ZM61.5379 36.7L61.5379 47.832L63.5379 47.832L63.5379 36.7L61.5379 36.7ZM62.5379 48.832L67.9499 48.832L67.9499 46.832L62.5379 46.832L62.5379 48.832ZM66.9499 47.832L66.9499 51L68.9499 51L68.9499 47.832L66.9499 47.832ZM67.9499 50L58.7539 50L58.7539 52L67.9499 52L67.9499 50ZM70.1119 51L69.1119 51L69.1119 52L70.1119 52L70.1119 51ZM70.1119 40L70.1119 39L69.1119 39L69.1119 40L70.1119 40ZM73.8959 40L74.8959 40L74.8959 39L73.8959 39L73.8959 40ZM73.8959 51L73.8959 52L74.8959 52L74.8959 51L73.8959 51ZM70.5519 38.108L69.8588 38.8288L69.8662 38.8359L69.8737 38.8428L70.5519 38.108ZM73.4559 35.38L72.7634 36.1014L72.7705 36.1082L72.7777 36.1148L73.4559 35.38ZM73.4559 38.108L74.1485 38.8294L74.149 38.8288L73.4559 38.108ZM71.1119 51L71.1119 40L69.1119 40L69.1119 51L71.1119 51ZM70.1119 41L73.8959 41L73.8959 39L70.1119 39L70.1119 41ZM72.8959 40L72.8959 51L74.8959 51L74.8959 40L72.8959 40ZM73.8959 50L70.1119 50L70.1119 52L73.8959 52L73.8959 50ZM72.0039 37.636C71.6333 37.636 71.4024 37.5322 71.2302 37.3732L69.8737 38.8428C70.4641 39.3878 71.2012 39.636 72.0039 39.636L72.0039 37.636ZM71.245 37.3872C71.0654 37.2144 70.9799 37.0226 70.9799 36.744L68.9799 36.744C68.9799 37.5508 69.2758 38.2682 69.8588 38.8288L71.245 37.3872ZM70.9799 36.744C70.9799 36.4426 71.0704 36.2624 71.2302 36.1148L69.8737 34.6452C69.2708 35.2016 68.9799 35.9307 68.9799 36.744L70.9799 36.744ZM71.2302 36.1148C71.4024 35.9558 71.6333 35.852 72.0039 35.852L72.0039 33.852C71.2012 33.852 70.4641 34.1002 69.8737 34.6452L71.2302 36.1148ZM72.0039 35.852C72.3976 35.852 72.6165 35.9603 72.7634 36.1014L74.1485 34.6586C73.5621 34.0957 72.8129 33.852 72.0039 33.852L72.0039 35.852ZM72.7777 36.1148C72.9375 36.2624 73.0279 36.4426 73.0279 36.744L75.0279 36.744C75.0279 35.9307 74.737 35.2016 74.1342 34.6452L72.7777 36.1148ZM73.0279 36.744C73.0279 37.0226 72.9425 37.2144 72.7628 37.3872L74.149 38.8288C74.7321 38.2682 75.0279 37.5508 75.0279 36.744L73.0279 36.744ZM72.7634 37.3866C72.6165 37.5277 72.3976 37.636 72.0039 37.636L72.0039 39.636C72.8129 39.636 73.5621 39.3923 74.1485 38.8294L72.7634 37.3866ZM77.5938 50.846L77.2408 51.7816L77.2513 51.7856L77.2619 51.7893L77.5938 50.846ZM75.5698 49.724L74.7571 49.1413L74.2026 49.9147L74.9476 50.5068L75.5698 49.724ZM77.2418 47.392L77.8231 46.5783L77.0108 45.9981L76.4291 46.8093L77.2418 47.392ZM78.6718 48.228L78.2742 49.1456L78.2924 49.1534L78.3108 49.1606L78.6718 48.228ZM80.7618 48.338L81.2987 49.1817L81.3077 49.176L81.3165 49.1701L80.7618 48.338ZM80.7178 47.348L80.1081 48.1406L80.1416 48.1664L80.1771 48.1892L80.7178 47.348ZM79.9478 46.952L80.2896 46.0122L80.2896 46.0122L79.9478 46.952ZM78.9138 46.556L78.5314 47.4801L78.5424 47.4845L78.9138 46.556ZM77.6378 45.896L77.0898 46.7325L77.1001 46.7392L77.1105 46.7456L77.6378 45.896ZM76.5598 44.84L75.7234 45.388L75.7299 45.398L75.7366 45.4077L76.5598 44.84ZM77.3518 40.704L76.7271 39.9231L76.7271 39.9231L77.3518 40.704ZM82.8298 40.198L82.3991 41.1005L82.4113 41.1063L82.4237 41.1118L82.8298 40.198ZM84.5458 41.188L85.3477 41.7855L85.9404 40.99L85.1497 40.3909L84.5458 41.188ZM82.8738 43.432L82.2786 44.2356L83.0799 44.8291L83.6757 44.0295L82.8738 43.432ZM81.7078 42.75L82.0975 41.829L82.0975 41.829L81.7078 42.75ZM79.9038 42.662L80.3827 43.5399L80.4123 43.5238L80.4407 43.5057L79.9038 42.662ZM79.9478 43.608L79.3786 44.4302L79.4008 44.4455L79.4237 44.4597L79.9478 43.608ZM80.6958 43.96L80.3398 44.8945L80.366 44.9044L80.3926 44.9129L80.6958 43.96ZM81.7298 44.312L82.0741 43.3731L82.0685 43.3711L81.7298 44.312ZM83.0278 44.95L82.5005 45.7996L82.5069 45.8036L82.5133 45.8075L83.0278 44.95ZM84.1058 45.984L83.2694 46.532L83.2759 46.542L83.2826 46.5517L84.1058 45.984ZM83.9958 49.482L83.1604 48.9324L83.1569 48.9378L83.9958 49.482ZM82.4118 50.78L81.9952 49.8709L81.9879 49.8743L82.4118 50.78ZM79.8378 50.264C79.2663 50.264 78.6311 50.1509 77.9257 49.9027L77.2619 51.7893C78.1406 52.0985 79.0014 52.264 79.8378 52.264L79.8378 50.264ZM77.9469 49.9104C77.2536 49.6488 76.6725 49.3231 76.1921 48.9412L74.9476 50.5068C75.6111 51.0342 76.3794 51.4566 77.2408 51.7816L77.9469 49.9104ZM76.3825 50.3067L78.0545 47.9747L76.4291 46.8093L74.7571 49.1413L76.3825 50.3067ZM76.6606 48.2057C77.2145 48.6014 77.753 48.9197 78.2742 49.1456L79.0694 47.3104C78.7107 47.155 78.2959 46.916 77.8231 46.5783L76.6606 48.2057ZM78.3108 49.1606C78.85 49.3693 79.392 49.492 79.9258 49.492L79.9258 47.492C79.697 47.492 79.403 47.4387 79.0328 47.2954L78.3108 49.1606ZM79.9258 49.492C80.3473 49.492 80.8791 49.4487 81.2987 49.1817L80.225 47.4943C80.2918 47.4518 80.3189 47.4575 80.2507 47.47C80.1894 47.4813 80.085 47.492 79.9258 47.492L79.9258 49.492ZM81.3165 49.1701C81.7838 48.8585 82.0258 48.3703 82.0258 47.832L80.0258 47.832C80.0258 47.8062 80.0319 47.7403 80.0732 47.6609C80.1155 47.58 80.1712 47.5299 80.2071 47.506L81.3165 49.1701ZM82.0258 47.832C82.0258 47.2056 81.6593 46.7644 81.2586 46.5068L80.1771 48.1892C80.1904 48.1978 80.1499 48.1752 80.1052 48.1049C80.0547 48.0256 80.0258 47.9274 80.0258 47.832L82.0258 47.832ZM81.3275 46.5554C81.0291 46.3258 80.671 46.1509 80.2896 46.0122L79.6061 47.8918C79.87 47.9877 80.0252 48.0769 80.1081 48.1406L81.3275 46.5554ZM80.2896 46.0122C79.9782 45.899 79.6435 45.7708 79.2852 45.6275L78.5424 47.4845C78.9175 47.6345 79.2721 47.7704 79.6061 47.8918L80.2896 46.0122ZM79.2962 45.632C78.9253 45.4785 78.5483 45.2841 78.1652 45.0464L77.1105 46.7456C77.5781 47.0359 78.0517 47.2815 78.5315 47.48L79.2962 45.632ZM78.1859 45.0595C77.8705 44.853 77.6041 44.5928 77.383 44.2723L75.7366 45.4077C76.1022 45.9378 76.5544 46.3817 77.0898 46.7325L78.1859 45.0595ZM77.3963 44.292C77.2426 44.0573 77.1418 43.7428 77.1418 43.3L75.1418 43.3C75.1418 44.0599 75.3198 44.772 75.7234 45.388L77.3963 44.292ZM77.1418 43.3C77.1418 42.5007 77.4206 41.9296 77.9765 41.4849L76.7271 39.9231C75.6697 40.7691 75.1418 41.9287 75.1418 43.3L77.1418 43.3ZM77.9765 41.4849C78.5654 41.0138 79.3763 40.736 80.4978 40.736L80.4978 38.736C79.038 38.736 77.7516 39.1035 76.7271 39.9231L77.9765 41.4849ZM80.4978 40.736C81.2973 40.736 81.9197 40.8717 82.3991 41.1005L83.2606 39.2955C82.4493 38.9083 81.517 38.736 80.4978 38.736L80.4978 40.736ZM82.4237 41.1118C83.0263 41.3796 83.5294 41.6725 83.942 41.9851L85.1497 40.3909C84.5942 39.9701 83.9533 39.603 83.236 39.2842L82.4237 41.1118ZM83.7439 40.5905L82.0719 42.8345L83.6757 44.0295L85.3477 41.7855L83.7439 40.5905ZM83.4691 42.6284C83.0211 42.2966 82.564 42.0264 82.0975 41.829L81.3182 43.671C81.6143 43.7963 81.9346 43.9807 82.2786 44.2356L83.4691 42.6284ZM82.0975 41.829C81.6201 41.6271 81.1278 41.508 80.6298 41.508L80.6298 43.508C80.8066 43.508 81.0329 43.5503 81.3182 43.671L82.0975 41.829ZM80.6298 41.508C80.2333 41.508 79.7646 41.5653 79.367 41.8183L80.4407 43.5057C80.3957 43.5343 80.3772 43.5325 80.4138 43.5247C80.4496 43.5171 80.5184 43.508 80.6298 43.508L80.6298 41.508ZM79.425 41.7841C78.8732 42.0851 78.6618 42.6242 78.6618 43.124L80.6618 43.124C80.6618 43.1337 80.6601 43.2083 80.6082 43.3075C80.5514 43.4159 80.4652 43.4949 80.3827 43.5399L79.425 41.7841ZM78.6618 43.124C78.6618 43.7159 78.9844 44.1573 79.3786 44.4302L80.517 42.7858C80.5129 42.783 80.5532 42.8097 80.5943 42.8793C80.6393 42.9555 80.6618 43.0437 80.6618 43.124L78.6618 43.124ZM79.4237 44.4597C79.6863 44.6212 79.998 44.7643 80.3398 44.8945L81.0518 43.0255C80.7777 42.9211 80.5907 42.8295 80.4719 42.7563L79.4237 44.4597ZM80.3926 44.9129C80.7018 45.0113 81.0345 45.1245 81.3911 45.2529L82.0685 43.3711C81.6918 43.2355 81.3352 43.114 80.999 43.0071L80.3926 44.9129ZM81.3856 45.2509C81.7575 45.3872 82.1291 45.5691 82.5005 45.7996L83.5552 44.1004C83.0759 43.8029 82.5822 43.5594 82.0741 43.3731L81.3856 45.2509ZM82.5133 45.8075C82.8253 45.9947 83.0741 46.234 83.2694 46.532L84.9423 45.436C84.5802 44.8833 84.1104 44.4333 83.5423 44.0925L82.5133 45.8075ZM83.2826 46.5517C83.4326 46.7692 83.5458 47.0986 83.5458 47.612L85.5458 47.612C85.5458 46.8054 85.3657 46.0495 84.929 45.4163L83.2826 46.5517ZM83.5458 47.612C83.5458 48.1129 83.416 48.5439 83.1604 48.9324L84.8312 50.0316C85.309 49.3054 85.5458 48.4898 85.5458 47.612L83.5458 47.612ZM83.1569 48.9378C82.927 49.2922 82.561 49.6116 81.9952 49.8709L82.8285 51.6891C83.6706 51.3031 84.3607 50.7571 84.8348 50.0262L83.1569 48.9378ZM81.9879 49.8743C81.4691 50.1172 80.7664 50.264 79.8378 50.264L79.8378 52.264C80.9626 52.264 81.9759 52.0882 82.8358 51.6857L81.9879 49.8743ZM87.8271 50.032L87.0288 50.6342L87.0347 50.6421L87.0408 50.6498L87.8271 50.032ZM86.8811 42.948L87.8811 42.948L87.8811 41.948L86.8811 41.948L86.8811 42.948ZM85.4291 42.948L84.4291 42.948L84.4291 43.948L85.4291 43.948L85.4291 42.948ZM85.4291 40.132L85.3504 39.1351L84.4291 39.2078L84.4291 40.132L85.4291 40.132ZM87.1011 40L87.1798 40.9969L87.9691 40.9346L88.0895 40.1521L87.1011 40ZM87.5411 37.14L87.5411 36.14L86.6832 36.14L86.5527 36.9879L87.5411 37.14ZM90.6651 37.14L91.6651 37.14L91.6651 36.14L90.6651 36.14L90.6651 37.14ZM90.6651 40L89.6651 40L89.6651 41L90.6651 41L90.6651 40ZM93.1731 40L94.1731 40L94.1731 39L93.1731 39L93.1731 40ZM93.1731 42.948L93.1731 43.948L94.1731 43.948L94.1731 42.948L93.1731 42.948ZM90.6651 42.948L90.6651 41.948L89.6651 41.948L89.6651 42.948L90.6651 42.948ZM92.4911 48.272L92.67 49.2559L92.702 49.25L92.7336 49.2421L92.4911 48.272ZM92.9531 48.14L93.9318 47.9348L93.7015 46.8364L92.6369 47.1913L92.9531 48.14ZM93.5251 50.868L93.8262 51.8216L94.6896 51.5489L94.5038 50.6628L93.5251 50.868ZM92.4691 51.132L92.6717 52.1113L92.6717 52.1113L92.4691 51.132ZM90.9291 50.264C89.6947 50.264 89.0063 49.9143 88.6134 49.4142L87.0408 50.6498C87.9385 51.7924 89.3181 52.264 90.9291 52.264L90.9291 50.264ZM88.6254 49.4298C88.1578 48.8099 87.8811 47.9535 87.8811 46.776L85.8811 46.776C85.8811 48.2678 86.2351 49.5821 87.0288 50.6342L88.6254 49.4298ZM87.8811 46.776L87.8811 42.948L85.8811 42.948L85.8811 46.776L87.8811 46.776ZM86.8811 41.948L85.4291 41.948L85.4291 43.948L86.8811 43.948L86.8811 41.948ZM86.4291 42.948L86.4291 40.132L84.4291 40.132L84.4291 42.948L86.4291 42.948ZM85.5078 41.1289L87.1798 40.9969L87.0224 39.0031L85.3504 39.1351L85.5078 41.1289ZM88.0895 40.1521L88.5295 37.2921L86.5527 36.9879L86.1127 39.8479L88.0895 40.1521ZM87.5411 38.14L90.6651 38.14L90.6651 36.14L87.5411 36.14L87.5411 38.14ZM89.6651 37.14L89.6651 40L91.6651 40L91.6651 37.14L89.6651 37.14ZM90.6651 41L93.1731 41L93.1731 39L90.6651 39L90.6651 41ZM92.1731 40L92.1731 42.948L94.1731 42.948L94.1731 40L92.1731 40ZM93.1731 41.948L90.6651 41.948L90.6651 43.948L93.1731 43.948L93.1731 41.948ZM89.6651 42.948L89.6651 46.71L91.6651 46.71L91.6651 42.948L89.6651 42.948ZM89.6651 46.71C89.6651 47.4056 89.809 48.189 90.3967 48.7114L91.7255 47.2166C91.7574 47.245 91.7423 47.2514 91.7177 47.1734C91.6915 47.0904 91.6651 46.9437 91.6651 46.71L89.6651 46.71ZM90.3967 48.7114C90.8431 49.1082 91.3872 49.316 91.9851 49.316L91.9851 47.316C91.8789 47.316 91.8071 47.2892 91.7255 47.2166L90.3967 48.7114ZM91.9851 49.316C92.2167 49.316 92.4455 49.2967 92.67 49.2559L92.3122 47.2881C92.214 47.306 92.1054 47.316 91.9851 47.316L91.9851 49.316ZM92.7336 49.2421C92.9275 49.1937 93.1071 49.1428 93.2693 49.0887L92.6369 47.1913C92.5351 47.2252 92.4067 47.2623 92.2486 47.3019L92.7336 49.2421ZM91.9744 48.3452L92.5464 51.0732L94.5038 50.6628L93.9318 47.9348L91.9744 48.3452ZM93.224 49.9144C92.9891 49.9886 92.6729 50.0687 92.2665 50.1527L92.6717 52.1113C93.116 52.0193 93.5037 51.9234 93.8262 51.8216L93.224 49.9144ZM92.2665 50.1527C91.9277 50.2228 91.4863 50.264 90.9291 50.264L90.9291 52.264C91.5746 52.264 92.1598 52.2172 92.6717 52.1113L92.2665 50.1527ZM97.4057 50.582L96.9343 51.464L96.9406 51.4672L97.4057 50.582ZM95.3817 48.624L94.5152 49.1233L94.519 49.1297L95.3817 48.624ZM95.3817 42.442L94.5216 41.9318L94.519 41.9363L95.3817 42.442ZM97.3617 40.44L96.8588 39.5757L96.8588 39.5757L97.3617 40.44ZM102.598 40.462L102.031 41.286L102.041 41.2928L102.051 41.2993L102.598 40.462ZM104.182 42.376L103.259 42.7618L103.262 42.7689L103.265 42.7759L104.182 42.376ZM104.644 46.006L103.654 45.8646L103.651 45.8855L103.649 45.9065L104.644 46.006ZM104.556 46.644L104.556 47.644L105.358 47.644L105.532 46.8609L104.556 46.644ZM97.6257 46.644L96.6258 46.6619L96.6434 47.644L97.6257 47.644L97.6257 46.644ZM97.5817 44.18L97.5817 43.18L96.5637 43.18L96.5818 44.1979L97.5817 44.18ZM101.498 44.18L101.498 45.18L102.498 45.18L102.498 44.18L101.498 44.18ZM101.168 43.08L100.324 43.6169L100.338 43.6395L100.354 43.6612L101.168 43.08ZM99.0777 42.86L99.5922 43.7175L99.5922 43.7175L99.0777 42.86ZM98.3517 43.762L97.4392 43.3529L97.4392 43.3529L98.3517 43.762ZM98.4837 47.304L97.6472 47.852L97.6517 47.8588L97.6562 47.8655L98.4837 47.304ZM99.5397 48.162L99.8943 47.227L99.8943 47.227L99.5397 48.162ZM101.938 48.25L102.218 49.21L102.23 49.2064L102.242 49.2024L101.938 48.25ZM103.082 47.744L103.958 47.2627L103.475 46.3818L102.596 46.8698L103.082 47.744ZM104.314 49.988L104.887 50.8072L105.622 50.2929L105.19 49.5067L104.314 49.988ZM102.334 50.934L102.621 51.8918L102.621 51.8918L102.334 50.934ZM100.31 50.264C99.3853 50.264 98.5794 50.069 97.8708 49.6968L96.9406 51.4672C97.9627 52.0043 99.0927 52.264 100.31 52.264L100.31 50.264ZM97.8771 49.7001C97.1928 49.3343 96.652 48.8136 96.2444 48.1183L94.519 49.1297C95.1087 50.1357 95.9172 50.9203 96.9343 51.4639L97.8771 49.7001ZM96.2481 48.1247C95.8542 47.4412 95.6337 46.5803 95.6337 45.5L93.6337 45.5C93.6337 46.8544 93.9118 48.0761 94.5153 49.1233L96.2481 48.1247ZM95.6337 45.5C95.6337 44.4533 95.8524 43.6164 96.2444 42.9477L94.519 41.9363C93.9136 42.969 93.6337 44.1707 93.6337 45.5L95.6337 45.5ZM96.2417 42.9522C96.6751 42.2216 97.2166 41.6814 97.8646 41.3043L96.8588 39.5757C95.8934 40.1373 95.1149 40.9317 94.5216 41.9318L96.2417 42.9522ZM97.8646 41.3043C98.5254 40.9199 99.2035 40.736 99.9137 40.736L99.9137 38.736C98.8346 38.736 97.8113 39.0215 96.8588 39.5757L97.8646 41.3043ZM99.9137 40.736C100.851 40.736 101.534 40.9441 102.031 41.286L103.164 39.638C102.254 39.0119 101.147 38.736 99.9137 38.736L99.9137 40.736ZM102.051 41.2993C102.599 41.657 102.997 42.1362 103.259 42.7618L105.104 41.9902C104.691 41.0025 104.034 40.2057 103.144 39.6247L102.051 41.2993ZM103.265 42.7759C103.556 43.4425 103.71 44.1989 103.71 45.06L105.71 45.06C105.71 43.9558 105.511 42.9228 105.098 41.9761L103.265 42.7759ZM103.71 45.06C103.71 45.3371 103.691 45.6051 103.654 45.8646L105.634 46.1474C105.685 45.7909 105.71 45.4282 105.71 45.06L103.71 45.06ZM103.649 45.9065C103.62 46.1952 103.595 46.3573 103.58 46.4271L105.532 46.8609C105.575 46.6667 105.609 46.4035 105.639 46.1055L103.649 45.9065ZM104.556 45.644L97.6257 45.644L97.6257 47.644L104.556 47.644L104.556 45.644ZM98.6255 46.6261L98.5815 44.1621L96.5818 44.1979L96.6258 46.6619L98.6255 46.6261ZM97.5817 45.18L101.498 45.18L101.498 43.18L97.5817 43.18L97.5817 45.18ZM102.498 44.18C102.498 43.5731 102.337 42.997 101.981 42.4988L100.354 43.6612C100.438 43.779 100.498 43.9362 100.498 44.18L102.498 44.18ZM102.011 42.5431C101.543 41.8067 100.734 41.596 100.002 41.596L100.002 43.596C100.2 43.596 100.301 43.625 100.339 43.6406C100.355 43.6474 100.356 43.6499 100.348 43.6435C100.339 43.6365 100.33 43.6266 100.324 43.6169L102.011 42.5431ZM100.002 41.596C99.4867 41.596 99.0022 41.7391 98.5632 42.0025L99.5922 43.7175C99.7398 43.6289 99.8713 43.596 100.002 43.596L100.002 41.596ZM98.5632 42.0025C98.0411 42.3157 97.6839 42.8071 97.4392 43.3529L99.2642 44.1711C99.4008 43.8662 99.5276 43.7563 99.5922 43.7175L98.5632 42.0025ZM97.4392 43.3529C97.1672 43.9596 97.0657 44.6978 97.0657 45.5L99.0657 45.5C99.0657 44.8355 99.1548 44.4151 99.2642 44.1711L97.4392 43.3529ZM97.0657 45.5C97.0657 46.3763 97.2193 47.1989 97.6472 47.852L99.3201 46.756C99.1907 46.5584 99.0657 46.1783 99.0657 45.5L97.0657 45.5ZM97.6562 47.8655C98.0393 48.4301 98.5499 48.8561 99.185 49.097L99.8943 47.227C99.6788 47.1453 99.4854 46.9993 99.3112 46.7425L97.6562 47.8655ZM99.185 49.097C99.7198 49.2998 100.272 49.404 100.838 49.404L100.838 47.404C100.523 47.404 100.21 47.3468 99.8943 47.227L99.185 49.097ZM100.838 49.404C101.31 49.404 101.771 49.3402 102.218 49.21L101.658 47.29C101.4 47.3651 101.128 47.404 100.838 47.404L100.838 49.404ZM102.242 49.2024C102.682 49.0619 103.124 48.8647 103.567 48.6182L102.596 46.8698C102.248 47.0633 101.927 47.2035 101.633 47.2976L102.242 49.2024ZM102.205 48.2253L103.437 50.4693L105.19 49.5067L103.958 47.2627L102.205 48.2253ZM103.74 49.1688C103.247 49.5142 102.685 49.7847 102.046 49.9762L102.621 51.8918C103.449 51.6433 104.207 51.2832 104.887 50.8072L103.74 49.1688ZM102.046 49.9762C101.385 50.1747 100.808 50.264 100.31 50.264L100.31 52.264C101.043 52.264 101.816 52.1333 102.621 51.8918L102.046 49.9762ZM106.786 51L105.786 51L105.786 52L106.786 52L106.786 51ZM106.786 40L106.786 39L105.786 39L105.786 40L106.786 40ZM109.866 40L110.856 39.8618L110.736 39L109.866 39L109.866 40ZM110.13 41.892L109.139 42.0302L109.26 42.892L110.13 42.892L110.13 41.892ZM110.218 41.892L110.218 42.892L110.81 42.892L111.094 42.3733L110.218 41.892ZM111.67 40.264L112.188 41.1195L112.194 41.1157L111.67 40.264ZM114.156 39.802L113.946 40.7798L113.985 40.788L114.024 40.7932L114.156 39.802ZM114.706 39.956L115.688 40.1419L115.829 39.3995L115.153 39.0616L114.706 39.956ZM114.09 43.212L113.865 44.1864L114.879 44.4204L115.072 43.3979L114.09 43.212ZM113.518 43.102L113.293 44.0764L113.329 44.0847L113.366 44.0904L113.518 43.102ZM111.604 43.454L112.131 44.3037L112.139 44.2988L111.604 43.454ZM110.57 44.884L109.636 44.5264L109.57 44.6991L109.57 44.884L110.57 44.884ZM110.57 51L110.57 52L111.57 52L111.57 51L110.57 51ZM107.786 51L107.786 40L105.786 40L105.786 51L107.786 51ZM106.786 41L109.866 41L109.866 39L106.786 39L106.786 41ZM108.875 40.1382L109.139 42.0302L111.12 41.7538L110.856 39.8618L108.875 40.1382ZM110.13 42.892L110.218 42.892L110.218 40.892L110.13 40.892L110.13 42.892ZM111.094 42.3733C111.446 41.7329 111.82 41.3418 112.188 41.1195L111.152 39.4085C110.405 39.8609 109.811 40.5551 109.341 41.4107L111.094 42.3733ZM112.194 41.1157C112.646 40.8377 113.024 40.736 113.342 40.736L113.342 38.736C112.575 38.736 111.838 38.9863 111.146 39.4123L112.194 41.1157ZM113.342 40.736C113.646 40.736 113.838 40.7567 113.946 40.7798L114.365 38.8242C114.063 38.7593 113.713 38.736 113.342 38.736L113.342 40.736ZM114.024 40.7932C114.17 40.8128 114.239 40.8406 114.259 40.8504L115.153 39.0616C114.879 38.9247 114.581 38.8499 114.288 38.8108L114.024 40.7932ZM113.723 39.7701L113.107 43.0261L115.072 43.3979L115.688 40.1419L113.723 39.7701ZM114.315 42.2376C114.1 42.1881 113.885 42.1468 113.67 42.1136L113.366 44.0904C113.532 44.1159 113.698 44.1479 113.865 44.1864L114.315 42.2376ZM113.743 42.1276C113.461 42.0627 113.163 42.036 112.858 42.036L112.858 44.036C113.051 44.036 113.193 44.0533 113.293 44.0764L113.743 42.1276ZM112.858 42.036C112.221 42.036 111.619 42.2605 111.069 42.6092L112.139 44.2988C112.468 44.0902 112.702 44.036 112.858 44.036L112.858 42.036ZM111.076 42.6044C110.396 43.0268 109.943 43.7258 109.636 44.5264L111.504 45.2416C111.725 44.6635 111.961 44.4092 112.131 44.3036L111.076 42.6044ZM109.57 44.884L109.57 51L111.57 51L111.57 44.884L109.57 44.884ZM110.57 50L106.786 50L106.786 52L110.57 52L110.57 50Z" fill="#243160"/>
</g>
<defs>
<clipPath id="clip0_65_17">
<rect width="128" height="128" fill="white" transform="matrix(-1 0 0 1 128 0)"/>
</clipPath>
</defs>
</svg>
